<?xml version="1.0" encoding="UTF-8" standalone="no"?>
<!-- Created with Inkscape (http://www.inkscape.org/) -->

<svg
   xmlns:dc="http://purl.org/dc/elements/1.1/"
   xmlns:cc="http://creativecommons.org/ns#"
   xmlns:rdf="http://www.w3.org/1999/02/22-rdf-syntax-ns#"
   xmlns:svg="http://www.w3.org/2000/svg"
   xmlns="http://www.w3.org/2000/svg"
   xmlns:sodipodi="http://sodipodi.sourceforge.net/DTD/sodipodi-0.dtd"
   xmlns:inkscape="http://www.inkscape.org/namespaces/inkscape"
   width="22"
   height="22"
   viewBox="0 0 5.8208332 5.8208335"
   version="1.1"
   id="svg8"
   inkscape:version="0.92.1 r"
   sodipodi:docname="start-here-kde.svg">
  <defs
     id="defs2" />
  <sodipodi:namedview
     id="base"
     pagecolor="#ffb0ff"
     bordercolor="#666666"
     borderopacity="1.0"
     inkscape:pageopacity="0"
     inkscape:pageshadow="2"
     inkscape:zoom="1.979899"
     inkscape:cx="-41.753737"
     inkscape:cy="119.51006"
     inkscape:document-units="mm"
     inkscape:current-layer="layer1"
     showgrid="false"
     units="px"
     inkscape:window-width="1600"
     inkscape:window-height="855"
     inkscape:window-x="0"
     inkscape:window-y="0"
     inkscape:window-maximized="1" />
  <metadata
     id="metadata5">
    <rdf:RDF>
      <cc:Work
         rdf:about="">
        <dc:format>image/svg+xml</dc:format>
        <dc:type
           rdf:resource="http://purl.org/dc/dcmitype/StillImage" />
        <dc:title></dc:title>
      </cc:Work>
    </rdf:RDF>
  </metadata>
  <g
     inkscape:label="Layer 1"
     inkscape:groupmode="layer"
     id="layer1"
     transform="translate(0,-291.17915)">
    <path
       style="fill:#fefefe;stroke-width:0.01170837"
       d="m 0.68138525,296.96658 c 0,-0.0161 0.31646512,-0.68623 0.34115515,-0.72237 0.00453,-0.006 0.022319,-0.0458 0.039527,-0.087 l 0.031287,-0.0748 -0.058674,-0.0781 -0.0586743,-0.0781 -0.11604617,0.0874 c -0.0638253,0.048 -0.1220194,0.0912 -0.12932017,0.0959 -0.030968,0.0198 -0.34605923,-0.55372 -0.3737286,-0.6803 -0.006468,-0.0296 -0.002304,-0.0333 0.0706924,-0.0622 0.0426607,-0.0168 0.10658922,-0.0423 0.14206355,-0.0566 l 0.0644988,-0.0258 -0.0265028,-0.0808 c -0.0635243,-0.19383 -0.13091682,-0.48978 -0.13091682,-0.5749 0,-0.0383 0.00181,-0.0383 -0.25864109,-0.001 l -0.0369486,0.004 v -0.37227 -0.37229 l 0.0369486,0.004 c 0.0203217,0.003 0.0737406,0.0107 0.11870833,0.0174 0.12730472,0.019 0.13993276,0.0174 0.13993276,-0.0182 0,-0.085 0.0673869,-0.38105 0.13086313,-0.57476 l 0.0264491,-0.0808 -0.0758139,-0.0302 c -0.0416977,-0.0165 -0.1056534,-0.0419 -0.14212397,-0.0561 -0.0620048,-0.0242 -0.0658564,-0.028 -0.0593235,-0.0578 0.0278091,-0.12714 0.3428003,-0.70066 0.37384271,-0.68079 0.007302,0.004 0.0654108,0.0478 0.12913347,0.0958 l 0.11585948,0.0873 0.0618662,-0.0806 c 0.077906,-0.10145 0.2066129,-0.24136 0.306121,-0.33265 0.042207,-0.0388 0.07674,-0.0745 0.07674,-0.0795 0,-0.004 -0.040928,-0.0616 -0.090951,-0.12591 -0.050023,-0.0642 -0.09095,-0.12136 -0.09095,-0.12713 0,-0.0332 0.3036012,-0.24292 0.521917,-0.36075 0.1016774,-0.0549 0.1864302,-0.0979 0.1883383,-0.0958 0.0047,0.006 0.1143296,0.26377 0.1234397,0.2909 0.00578,0.0171 0.011752,0.019 0.029276,0.009 0.081368,-0.0462 0.3242803,-0.1183 0.5126581,-0.15211 0.065655,-0.0121 0.1208676,-0.0225 0.1226948,-0.0238 0.00183,-0.001 -0.00549,-0.0737 -0.016251,-0.16097 -0.015477,-0.1253 -0.01665,-0.16159 -0.00561,-0.17332 0.010455,-0.0107 0.1036253,-0.0152 0.3705494,-0.0152 0.1961193,0 0.3603013,0.004 0.3648488,0.009 0.00455,0.004 0.00262,0.0482 -0.00428,0.0964 -0.00691,0.0482 -0.015895,0.12439 -0.019985,0.16912 l -0.00744,0.0814 h 0.040197 c 0.1137751,0 0.4668706,0.0965 0.6185822,0.16927 l 0.070635,0.0338 0.029723,-0.0684 c 0.016348,-0.0376 0.045384,-0.10767 0.064525,-0.15579 0.019283,-0.0485 0.041795,-0.0874 0.050485,-0.0874 0.043612,0 0.3561728,0.18303 0.5124983,0.3001 0.092095,0.0689 0.1032761,0.0812 0.090951,0.099 -0.00773,0.0107 -0.051144,0.0706 -0.096477,0.1317 -0.045333,0.0613 -0.082424,0.11511 -0.082424,0.11967 0,0.004 0.042207,0.0469 0.093793,0.0938 0.1172303,0.10674 0.2952715,0.30069 0.3600778,0.39215 l 0.049165,0.0694 0.052598,-0.0416 c 0.028929,-0.023 0.08915,-0.069 0.1338222,-0.10229 l 0.081224,-0.0606 0.04573,0.0631 c 0.1024545,0.14127 0.2958115,0.52196 0.3009065,0.59246 0.00245,0.0338 -0.00137,0.0363 -0.1393036,0.094 -0.078,0.0325 -0.1432169,0.0607 -0.1449281,0.0626 -0.00171,0.001 0.00993,0.0435 0.025891,0.0928 0.05131,0.15826 0.1067229,0.39954 0.1212094,0.52774 l 0.014099,0.12485 0.051404,-0.006 c 0.028272,-0.003 0.093611,-0.0107 0.1451972,-0.0152 l 0.093793,-0.007 v 0.31663 0.3166 l -0.093793,-0.007 c -0.051586,-0.004 -0.1169247,-0.0107 -0.1451972,-0.0152 l -0.051404,-0.006 -0.014099,0.12485 c -0.014486,0.12819 -0.0699,0.36947 -0.1212094,0.52774 -0.015951,0.0493 -0.027602,0.0909 -0.025891,0.0928 0.00171,0.001 0.066929,0.0299 0.1449281,0.0625 0.1379339,0.0576 0.141748,0.0602 0.1393036,0.094 -0.0051,0.0706 -0.1984518,0.45118 -0.3009065,0.59244 l -0.04573,0.0631 -0.081224,-0.0606 c -0.044673,-0.0333 -0.1048925,-0.0794 -0.1338222,-0.10239 l -0.052598,-0.0416 -0.04911,0.0693 c -0.02701,0.0382 -0.054553,0.0748 -0.061206,0.0815 -0.00665,0.006 -0.023926,0.0263 -0.038385,0.0439 l -0.02629,0.0318 0.1618833,0.34195 c 0.2207081,0.4662 0.2263068,0.47853 0.2263068,0.4989 0,0.009 -0.00591,0.0179 -0.013119,0.0179 -0.015848,0 -0.1147239,-0.0579 -0.3052089,-0.17891 -0.3382038,-0.21477 -0.997045,-0.55663 -1.0727359,-0.55663 -0.00953,0 -0.020174,-0.004 -0.023651,-0.0107 -0.00348,-0.006 -0.033195,-0.0177 -0.066042,-0.026 -0.032846,-0.007 -0.077627,-0.0231 -0.099512,-0.0329 -0.072979,-0.0325 -0.2344457,-0.071 -0.2586269,-0.0616 -0.035033,0.0137 -0.041714,0.0322 -0.04912,0.13625 -0.00659,0.0925 -0.00815,0.0965 -0.053719,0.14172 -0.052226,0.0517 -0.09203,0.0602 -0.1015189,0.0218 -0.01051,-0.0426 -0.053219,-0.0254 -0.059983,0.0242 -0.00501,0.0368 -0.011849,0.0439 -0.057778,0.0614 -0.1132829,0.0429 -0.1695986,0.0382 -0.1695986,-0.0137 0,-0.0152 -0.00807,-0.0227 -0.022737,-0.0227 -0.014664,0 -0.022738,0.007 -0.022738,0.0227 0,0.0383 -0.026324,0.0519 -0.075474,0.0386 -0.158039,-0.0423 -0.1519028,-0.0385 -0.1519028,-0.0922 0,-0.0341 -0.00426,-0.0415 -0.023802,-0.0415 -0.014241,0 -0.026191,0.009 -0.029748,0.0242 -0.013863,0.0563 -0.1148997,9.4e-4 -0.1469503,-0.0804 -0.00853,-0.0215 -0.015508,-0.0697 -0.015508,-0.1066 0,-0.0553 -0.00494,-0.0725 -0.027905,-0.0969 -0.015348,-0.0163 -0.036239,-0.0296 -0.046423,-0.0296 -0.049954,0 -0.4855665,0.14051 -0.5810978,0.18738 -0.019703,0.009 -0.040168,0.0178 -0.045475,0.018 -0.00531,2.3e-4 -0.030115,0.0107 -0.055126,0.0238 -0.025011,0.0121 -0.051871,0.0234 -0.059687,0.0237 -0.00782,2.3e-4 -0.014211,0.006 -0.014211,0.0121 0,0.006 -0.00545,0.0121 -0.012124,0.0121 -0.012418,0 -0.3755183,0.18137 -0.3857849,0.1927 -0.00781,0.009 -0.045496,0.0308 -0.1285566,0.0753 -0.038719,0.0208 -0.1445797,0.0848 -0.2352463,0.14218 -0.21169223,0.13397 -0.31151814,0.19271 -0.32794654,0.19271 -0.007215,0 -0.0131184,-0.009 -0.0131184,-0.0191 z m 2.40450905,-1.06935 c 0.00625,2.3e-4 0.020322,0.004 0.031264,0.009 0.016732,0.007 0.019896,0.001 0.019896,-0.0335 0,-0.0489 -0.042029,-0.20151 -0.055509,-0.20151 -0.013336,0 -0.072931,0.21353 -0.063913,0.22901 0.00437,0.007 0.018191,0.009 0.032271,0.004 0.013542,-0.004 0.029739,-0.007 0.035992,-0.007 z m 1.628923,-0.12044 c 0.013308,-0.0152 0.020594,-0.0327 0.016193,-0.0392 -0.014489,-0.0214 -0.3547529,-0.17157 -0.3547529,-0.15647 0,10e-4 0.024301,0.0185 0.054002,0.0368 0.029701,0.0182 0.097108,0.0677 0.1497926,0.10964 0.052685,0.0421 0.099116,0.0765 0.1031797,0.0765 0.00407,0 0.018277,-0.0121 0.031586,-0.0274 z m -2.0161004,-0.0653 c 0.1270681,-0.0603 0.1790585,-0.0992 0.2035642,-0.15227 0.039843,-0.0862 0.00216,-0.14507 -0.1017494,-0.15881 -0.112169,-0.0152 -0.1630187,-0.0436 -0.3358068,-0.19024 -0.063391,-0.0539 -0.098346,-0.0439 -0.1385527,0.0391 -0.030032,0.062 -0.03163,0.0725 -0.024621,0.16276 0.012156,0.15647 0.044583,0.26366 0.094142,0.31124 0.059208,0.0569 0.1673409,0.0526 0.3030228,-0.0121 z m 1.0749074,-0.001 c 0.051452,-0.0546 0.074881,-0.13305 0.085873,-0.28731 0.00679,-0.0952 0.0048,-0.11679 -0.015181,-0.16476 -0.022451,-0.0539 -0.051628,-0.0814 -0.086331,-0.0814 -0.00947,0 -0.06736,0.0402 -0.1286468,0.0892 -0.1281571,0.1026 -0.1658807,0.12165 -0.2643951,0.13382 -0.087868,0.0107 -0.1142022,0.0346 -0.1142022,0.10345 0,0.0269 0.00519,0.0593 0.011539,0.072 0.016438,0.0325 0.093778,0.0858 0.19522,0.13428 0.074462,0.0356 0.1011675,0.0421 0.1805625,0.0438 l 0.093176,10e-4 0.042384,-0.045 z m 1.0876094,-0.12682 c 0.1725137,-0.24443 0.3218618,-0.61626 0.3739761,-0.93111 0.025275,-0.1527 0.033914,-0.46616 0.017463,-0.63362 -0.040883,-0.41616 -0.1648173,-0.74151 -0.4384456,-1.15098 -0.022159,-0.0332 -0.090229,-0.11451 -0.1512673,-0.18086 -0.3073424,-0.33394 -0.7160052,-0.56658 -1.1516681,-0.6556 -0.1160397,-0.0237 -0.2946554,-0.0458 -0.2946554,-0.0363 0,0.004 0.049168,0.1364 0.1073349,0.28796 0.013996,0.0365 0.038552,0.0961 0.05457,0.1326 0.016019,0.0365 0.076244,0.18298 0.1338348,0.32557 0.05759,0.14264 0.1266035,0.31079 0.1533621,0.3738 0.026759,0.063 0.067797,0.16067 0.091196,0.21706 0.04951,0.11921 0.081815,0.19375 0.1691851,0.3901 0.034978,0.0787 0.063597,0.14462 0.063597,0.1469 0,10e-4 0.076739,0.16967 0.1705325,0.37221 0.093793,0.20253 0.1705326,0.37133 0.1705326,0.3751 0,0.009 0.4460528,0.95619 0.4669671,0.99167 0.00879,0.0152 0.0186,0.0269 0.021785,0.0268 0.00318,-2.5e-4 0.02195,-0.0232 0.041699,-0.0513 z m -3.5023133,-0.0359 c 0.00685,-0.0152 0.099958,-0.21152 0.2069023,-0.437 0.1728829,-0.36452 0.4048616,-0.85691 0.4914003,-1.04302 0.032311,-0.0695 0.1727469,-0.38374 0.271542,-0.6076 0.031871,-0.0723 0.057945,-0.13869 0.057945,-0.14767 0,-0.0302 0.034174,-0.0168 0.1054878,0.0411 0.1260285,0.1025 0.2255701,0.17187 0.3146688,0.21958 0.094,0.0503 0.1073715,0.0455 0.040282,-0.0152 -0.095716,-0.0858 -0.3808561,-0.39252 -0.3808561,-0.40972 0,-0.009 0.018425,-0.0622 0.040944,-0.11831 0.022519,-0.0562 0.079369,-0.20252 0.1263322,-0.3252 0.046964,-0.12272 0.1083615,-0.28277 0.1364395,-0.35572 0.064533,-0.16767 0.1284524,-0.34751 0.1248627,-0.35131 -0.00152,-0.001 -0.075195,0.0107 -0.1637367,0.026 -1.0947518,0.1965 -1.87132652,1.23871 -1.78822607,2.39988 0.0217177,0.30349 0.0876985,0.56462 0.20764957,0.82189 0.061007,0.13093 0.1746253,0.32919 0.1884721,0.32901 0.00409,-5e-5 0.013038,-0.0121 0.01989,-0.0271 z"
       id="path3691"
       inkscape:connector-curvature="0" />
  </g>
</svg>
