<?xml version="1.0" encoding="UTF-8" standalone="no"?>
<!-- Created with Inkscape (http://www.inkscape.org/) -->

<svg
   xmlns:dc="http://purl.org/dc/elements/1.1/"
   xmlns:cc="http://creativecommons.org/ns#"
   xmlns:rdf="http://www.w3.org/1999/02/22-rdf-syntax-ns#"
   xmlns:svg="http://www.w3.org/2000/svg"
   xmlns="http://www.w3.org/2000/svg"
   xmlns:sodipodi="http://sodipodi.sourceforge.net/DTD/sodipodi-0.dtd"
   xmlns:inkscape="http://www.inkscape.org/namespaces/inkscape"
   width="32"
   height="32"
   viewBox="0 0 8.4666664 8.4666669"
   version="1.1"
   id="svg8"
   inkscape:version="0.92.1 r"
   sodipodi:docname="start-here-kde.svg">
  <defs
     id="defs2" />
  <sodipodi:namedview
     id="base"
     pagecolor="#ffb0ff"
     bordercolor="#666666"
     borderopacity="1.0"
     inkscape:pageopacity="0"
     inkscape:pageshadow="2"
     inkscape:zoom="1.979899"
     inkscape:cx="-41.753737"
     inkscape:cy="119.51006"
     inkscape:document-units="mm"
     inkscape:current-layer="layer1"
     showgrid="false"
     units="px"
     inkscape:window-width="1600"
     inkscape:window-height="855"
     inkscape:window-x="0"
     inkscape:window-y="0"
     inkscape:window-maximized="1" />
  <metadata
     id="metadata5">
    <rdf:RDF>
      <cc:Work
         rdf:about="">
        <dc:format>image/svg+xml</dc:format>
        <dc:type
           rdf:resource="http://purl.org/dc/dcmitype/StillImage" />
        <dc:title></dc:title>
      </cc:Work>
    </rdf:RDF>
  </metadata>
  <g
     inkscape:label="Layer 1"
     inkscape:groupmode="layer"
     id="layer1"
     transform="translate(0,-288.53332)">
    <path
       style="fill:#fefefe;stroke-width:0.01703318"
       d="m 0.90876016,297.0916 c 0,-0.0235 0.46031174,-0.9985 0.49622434,-1.05108 0.00659,-0.009 0.032463,-0.0666 0.057493,-0.12649 l 0.045509,-0.10894 -0.085345,-0.11379 -0.085345,-0.1138 -0.1687941,0.12718 c -0.092837,0.0699 -0.17748229,0.13274 -0.18810156,0.13954 -0.0450442,0.0289 -0.50335759,-0.80568 -0.54360384,-0.98985 -0.009409,-0.0431 -0.00335,-0.0484 0.10282497,-0.0904 0.0620517,-0.0246 0.15503847,-0.0616 0.20663735,-0.0822 l 0.0938162,-0.0375 -0.0385496,-0.11767 c -0.0923988,-0.28204 -0.19042397,-0.71265 -0.19042397,-0.83651 0,-0.0558 0.002633,-0.0558 -0.37620427,-10e-4 l -0.0537434,0.007 v -0.54169 -0.54168 l 0.0537434,0.007 c 0.0295589,0.004 0.10725878,0.0154 0.17266623,0.0252 0.18517002,0.0276 0.20353804,0.0253 0.20353804,-0.0266 0,-0.1238 0.0980171,-0.55443 0.19034587,-0.83628 l 0.0384713,-0.11744 -0.11027454,-0.0441 c -0.060651,-0.0243 -0.15367731,-0.0611 -0.20672526,-0.0817 -0.0901886,-0.0353 -0.0957909,-0.0407 -0.0862884,-0.0841 0.0404495,-0.18486 0.49861736,-1.01948 0.54376983,-0.99055 0.0106197,0.007 0.095143,0.0695 0.18782995,0.13933 l 0.1685225,0.12698 0.089987,-0.11727 c 0.1133177,-0.14767 0.300527,-0.35117 0.4452657,-0.48403 0.061392,-0.0563 0.1116212,-0.10844 0.1116212,-0.11574 0,-0.007 -0.059532,-0.0897 -0.1322916,-0.18312 -0.072761,-0.0934 -0.1322916,-0.1766 -0.1322916,-0.18487 0,-0.0481 0.4416008,-0.35346 0.7591501,-0.52487 0.1478947,-0.0799 0.2711705,-0.14253 0.2739461,-0.13932 0.00685,0.008 0.1662969,0.3838 0.179548,0.42327 0.00841,0.0251 0.017093,0.0278 0.042584,0.0133 0.1183525,-0.0672 0.4716793,-0.17207 0.7456827,-0.22133 0.095498,-0.0172 0.175807,-0.0328 0.1784648,-0.0347 0.00265,-0.002 -0.00798,-0.10735 -0.023637,-0.2342 -0.022512,-0.18236 -0.024218,-0.23514 -0.00815,-0.25219 0.015209,-0.0161 0.1507271,-0.0216 0.5389795,-0.0216 0.2852636,0 0.5240732,0.006 0.5306877,0.0127 0.00661,0.007 0.00381,0.0701 -0.00622,0.14035 -0.010039,0.0702 -0.02312,0.18094 -0.029068,0.24607 l -0.010814,0.11843 h 0.058469 c 0.1654908,0 0.679083,0.14057 0.8997536,0.24627 l 0.1027423,0.0492 0.043233,-0.0995 c 0.023779,-0.0547 0.066013,-0.15673 0.093854,-0.22669 0.028048,-0.0705 0.060793,-0.1272 0.073433,-0.1272 0.063437,0 0.5180683,0.2663 0.7454503,0.43665 0.1339554,0.10032 0.1502185,0.11807 0.1322915,0.14412 -0.011242,0.0163 -0.07439,0.10258 -0.1403289,0.19162 -0.06594,0.0891 -0.1198893,0.16743 -0.1198893,0.17414 0,0.007 0.061392,0.0682 0.1364256,0.13653 0.1705163,0.15539 0.4294847,0.43754 0.5237481,0.57062 l 0.071512,0.10093 0.076507,-0.0607 c 0.042078,-0.0334 0.1296713,-0.10042 0.19465,-0.14885 l 0.1181433,-0.0881 0.066517,0.0918 c 0.1490246,0.20555 0.4302701,0.75949 0.4376812,0.86205 0.00356,0.0492 -0.00199,0.0529 -0.202623,0.1368 -0.1134532,0.0474 -0.208315,0.0884 -0.2108041,0.091 -0.00249,0.003 0.014457,0.0634 0.037659,0.13497 0.074632,0.23027 0.1552337,0.58134 0.1763043,0.76789 l 0.020508,0.18156 0.074769,-0.009 c 0.041123,-0.005 0.1361612,-0.015 0.2111955,-0.0216 l 0.1364256,-0.0118 v 0.4607 0.4607 l -0.1364256,-0.0118 c -0.075034,-0.006 -0.170072,-0.0162 -0.2111955,-0.0215 l -0.074769,-0.009 -0.020508,0.18156 c -0.02107,0.18656 -0.1016718,0.53762 -0.1763043,0.7679 -0.023201,0.0716 -0.040148,0.13233 -0.037659,0.13497 0.00249,0.003 0.097351,0.0436 0.2108041,0.091 0.2006306,0.0839 0.2061785,0.0876 0.202623,0.13681 -0.00741,0.10258 -0.2886566,0.65649 -0.4376812,0.86204 l -0.066517,0.0918 -0.1181433,-0.0881 c -0.064978,-0.0484 -0.1525713,-0.11544 -0.19465,-0.14885 l -0.076507,-0.0607 -0.071432,0.10093 c -0.039288,0.0555 -0.07935,0.10886 -0.089026,0.11852 -0.00967,0.009 -0.034801,0.0384 -0.055832,0.0639 l -0.038239,0.0464 0.235466,0.49755 c 0.3210292,0.67834 0.3291728,0.69629 0.3291728,0.7259 0,0.0143 -0.00858,0.026 -0.019082,0.026 -0.023053,0 -0.1668706,-0.0844 -0.4439391,-0.26034 -0.4919316,-0.31248 -1.4502436,-0.8099 -1.5603391,-0.8099 -0.013864,0 -0.029345,-0.007 -0.034401,-0.0157 -0.00506,-0.008 -0.048284,-0.0257 -0.09606,-0.0378 -0.047777,-0.0121 -0.1129123,-0.0337 -0.1447448,-0.0479 -0.1061498,-0.0475 -0.3410111,-0.1034 -0.3761837,-0.0896 -0.050956,0.02 -0.060676,0.047 -0.071447,0.1982 -0.00958,0.13456 -0.011853,0.14054 -0.078136,0.20614 -0.075964,0.0751 -0.1338604,0.0876 -0.147663,0.0316 -0.01528,-0.062 -0.077409,-0.0369 -0.087247,0.0353 -0.00729,0.0534 -0.017236,0.064 -0.084041,0.0893 -0.1647747,0.0624 -0.2466883,0.0556 -0.2466883,-0.0206 0,-0.0213 -0.011743,-0.0329 -0.033073,-0.0329 -0.02133,0 -0.033072,0.0117 -0.033072,0.0329 0,0.0558 -0.038289,0.0754 -0.1097799,0.0563 -0.2298743,-0.0615 -0.220949,-0.056 -0.220949,-0.13414 0,-0.0495 -0.00619,-0.0603 -0.034621,-0.0603 -0.020714,0 -0.038095,0.0141 -0.04327,0.0351 -0.020164,0.0818 -0.1671266,10e-4 -0.2137455,-0.11704 -0.012406,-0.0315 -0.022556,-0.10135 -0.022556,-0.15513 0,-0.0805 -0.0072,-0.10549 -0.040589,-0.14092 -0.022324,-0.0236 -0.05271,-0.0431 -0.067524,-0.0431 -0.07266,0 -0.7062767,0.2044 -0.8452308,0.27267 -0.02866,0.0141 -0.058425,0.0259 -0.066146,0.0262 -0.00772,3.4e-4 -0.043803,0.0158 -0.080183,0.0345 -0.03638,0.0186 -0.075448,0.0341 -0.086816,0.0345 -0.011369,3.4e-4 -0.020671,0.008 -0.020671,0.0182 0,0.009 -0.00793,0.0176 -0.017635,0.0176 -0.018063,0 -0.546207,0.26387 -0.5611403,0.28036 -0.011358,0.0125 -0.066175,0.0447 -0.1869909,0.10956 -0.056318,0.0302 -0.2102972,0.12336 -0.3421756,0.20691 -0.3079152,0.19506 -0.45311618,0.28041 -0.47701197,0.28041 -0.0104944,0 -0.0190813,-0.0125 -0.0190813,-0.028 z m 3.49745864,-1.55595 c 0.00909,3.5e-4 0.029559,0.006 0.045476,0.0134 0.024337,0.0107 0.028939,0.003 0.028939,-0.0487 0,-0.0712 -0.061133,-0.29321 -0.08074,-0.29321 -0.019397,0 -0.1060807,0.3107 -0.092965,0.33322 0.00636,0.0109 0.02646,0.0139 0.046939,0.007 0.019698,-0.007 0.043257,-0.0119 0.052352,-0.0116 z m 2.3693367,-0.17525 c 0.019357,-0.0219 0.029956,-0.0475 0.023553,-0.0571 -0.021075,-0.0312 -0.5160029,-0.24964 -0.5160029,-0.22766 0,0.003 0.035347,0.027 0.078548,0.0536 0.043201,0.0265 0.1412474,0.0984 0.2178796,0.15958 0.076633,0.0612 0.1441683,0.11126 0.1500797,0.11126 0.00591,0 0.026585,-0.0179 0.045943,-0.0398 z m -2.9325023,-0.0949 c 0.184826,-0.0878 0.260448,-0.14439 0.2960928,-0.22155 0.057954,-0.12547 0.00313,-0.21106 -0.1479986,-0.23109 -0.1631544,-0.0216 -0.2371173,-0.0635 -0.4884448,-0.27679 -0.092205,-0.0782 -0.1430479,-0.0638 -0.2015307,0.057 -0.043683,0.0902 -0.046006,0.1056 -0.035812,0.23686 0.017683,0.22764 0.064847,0.38361 0.1369341,0.45282 0.086121,0.0826 0.2434043,0.0766 0.4407593,-0.0172 z m 1.5634978,-0.002 c 0.074839,-0.0796 0.1089174,-0.19362 0.124907,-0.41805 0.00988,-0.13861 0.00698,-0.17004 -0.022081,-0.23974 -0.032656,-0.0783 -0.075096,-0.11832 -0.1255718,-0.11832 -0.013774,0 -0.097978,0.0584 -0.1871221,0.12979 -0.1864099,0.14928 -0.2412803,0.17706 -0.3845738,0.19471 -0.1278072,0.0157 -0.1661119,0.0504 -0.1661119,0.15036 0,0.0393 0.00755,0.0863 0.016784,0.10462 0.023909,0.0474 0.1364045,0.12477 0.2839556,0.19529 0.1083086,0.0518 0.1471519,0.0613 0.2626357,0.0638 l 0.1355283,0.003 z m 1.5819732,-0.18451 c 0.2509284,-0.35563 0.4681614,-0.89668 0.5439639,-1.35479 0.036764,-0.2222 0.04933,-0.67827 0.0254,-0.92194 -0.059466,-0.60553 -0.2397337,-1.07891 -0.6377373,-1.6747 -0.032231,-0.0482 -0.1312422,-0.16668 -0.2200247,-0.26317 -0.4470423,-0.48588 -1.0414594,-0.82438 -1.6751494,-0.95392 -0.1687845,-0.0345 -0.4285886,-0.0665 -0.4285886,-0.0528 0,0.006 0.071516,0.19841 0.1561231,0.41899 0.020357,0.053 0.056076,0.13992 0.079376,0.19299 0.0233,0.053 0.1109003,0.26624 0.1946683,0.47371 0.083768,0.20747 0.1841501,0.45223 0.2230716,0.54389 0.038921,0.0917 0.098613,0.23379 0.1326488,0.31581 0.072015,0.17354 0.1190023,0.28193 0.2460867,0.56762 0.050878,0.11438 0.092504,0.21054 0.092504,0.21371 0,0.003 0.1116209,0.24687 0.2480466,0.54157 0.1364257,0.29469 0.2480468,0.54028 0.2480468,0.54577 0,0.0131 0.6488025,1.3913 0.6792232,1.44291 0.012796,0.0217 0.027054,0.0393 0.031688,0.039 0.00464,-3.4e-4 0.031928,-0.0338 0.060653,-0.0745 z m -5.0942609,-0.0522 c 0.00997,-0.0217 0.1453929,-0.30777 0.300948,-0.63586 0.2514655,-0.53038 0.5888882,-1.24681 0.7147623,-1.51763 0.046997,-0.10114 0.2512676,-0.55833 0.3949691,-0.88407 0.046356,-0.10508 0.084285,-0.20179 0.084285,-0.21493 0,-0.0439 0.049707,-0.0246 0.1534363,0.0598 0.1833138,0.14903 0.3281011,0.2501 0.4576989,0.31951 0.1367261,0.0732 0.1561761,0.0662 0.058591,-0.0214 -0.139223,-0.12479 -0.5539712,-0.57114 -0.5539712,-0.59618 0,-0.013 0.0268,-0.0905 0.059555,-0.17215 0.032755,-0.0817 0.1154452,-0.29466 0.1837554,-0.47318 0.06831,-0.17852 0.1576159,-0.41143 0.1984568,-0.51758 0.093866,-0.24395 0.1868396,-0.50563 0.1816181,-0.51117 -0.0022,-0.002 -0.1093737,0.0147 -0.2381617,0.0378 -1.5923622,0.28592 -2.7219225,1.80236 -2.6010495,3.49191 0.031589,0.44155 0.127561,0.82154 0.3020351,1.19587 0.088738,0.19038 0.2539997,0.47896 0.2741404,0.47871 0.00595,-7e-5 0.018965,-0.0179 0.028931,-0.0395 z"
       id="path3691"
       inkscape:connector-curvature="0" />
  </g>
</svg>
