<?xml version="1.0" encoding="UTF-8" standalone="no"?>
<!-- Created with Inkscape (http://www.inkscape.org/) -->

<svg
   xmlns:dc="http://purl.org/dc/elements/1.1/"
   xmlns:cc="http://creativecommons.org/ns#"
   xmlns:rdf="http://www.w3.org/1999/02/22-rdf-syntax-ns#"
   xmlns:svg="http://www.w3.org/2000/svg"
   xmlns="http://www.w3.org/2000/svg"
   xmlns:sodipodi="http://sodipodi.sourceforge.net/DTD/sodipodi-0.dtd"
   xmlns:inkscape="http://www.inkscape.org/namespaces/inkscape"
   width="16"
   height="16"
   viewBox="0 0 4.2333332 4.2333334"
   version="1.1"
   id="svg8"
   inkscape:version="0.92.1 r"
   sodipodi:docname="start-here-kde.svg">
  <defs
     id="defs2" />
  <sodipodi:namedview
     id="base"
     pagecolor="#ffb0ff"
     bordercolor="#666666"
     borderopacity="1.0"
     inkscape:pageopacity="0"
     inkscape:pageshadow="2"
     inkscape:zoom="1.979899"
     inkscape:cx="-41.753737"
     inkscape:cy="119.51006"
     inkscape:document-units="mm"
     inkscape:current-layer="layer1"
     showgrid="false"
     units="px"
     inkscape:window-width="1600"
     inkscape:window-height="855"
     inkscape:window-x="0"
     inkscape:window-y="0"
     inkscape:window-maximized="1" />
  <metadata
     id="metadata5">
    <rdf:RDF>
      <cc:Work
         rdf:about="">
        <dc:format>image/svg+xml</dc:format>
        <dc:type
           rdf:resource="http://purl.org/dc/dcmitype/StillImage" />
        <dc:title></dc:title>
      </cc:Work>
    </rdf:RDF>
  </metadata>
  <g
     inkscape:label="Layer 1"
     inkscape:groupmode="layer"
     id="layer1"
     transform="translate(0,-292.76665)">
    <path
       style="fill:#fefefe;stroke-width:0.00851736"
       d="m 0.54495837,297.10612 c 0,-0.0117 0.23015591,-0.49934 0.24811228,-0.52563 0.003296,-0.005 0.0162318,-0.0333 0.0287468,-0.0633 l 0.0227545,-0.0545 -0.0426721,-0.0569 -0.0426721,-0.0569 -0.084397,0.0636 c -0.0464183,0.035 -0.0887412,0.0664 -0.0940508,0.0698 -0.0225221,0.0144 -0.25167888,-0.40292 -0.271802,-0.49502 -0.004704,-0.0215 -0.001676,-0.0241 0.0514125,-0.0453 0.0310258,-0.0123 0.0775192,-0.0308 0.10331871,-0.0412 l 0.0469081,-0.0188 -0.0192748,-0.0588 c -0.0461994,-0.14106 -0.095212,-0.3564 -0.095212,-0.41834 0,-0.028 0.001317,-0.028 -0.1881022,-7.4e-4 l -0.0268717,0.004 v -0.27089 -0.27089 l 0.0268717,0.003 c 0.0147795,0.002 0.0536294,0.007 0.0863331,0.0126 0.092585,0.0138 0.10176906,0.0126 0.10176906,-0.0132 0,-0.0619 0.0490086,-0.27727 0.095173,-0.41822 l 0.0192357,-0.0587 -0.0551373,-0.022 c -0.0303255,-0.0121 -0.0768387,-0.0304 -0.10336265,-0.0409 -0.0450943,-0.0176 -0.0478955,-0.0203 -0.0431442,-0.0421 0.0202248,-0.0924 0.24930876,-0.50983 0.271885,-0.49537 0.00531,0.003 0.0475714,0.0348 0.093915,0.0697 l 0.0842612,0.0635 0.0449935,-0.0586 c 0.0566589,-0.0739 0.15026357,-0.17562 0.22263283,-0.24206 0.030696,-0.0282 0.05581,-0.0542 0.05581,-0.0578 0,-0.003 -0.029765,-0.0449 -0.066146,-0.0915 -0.0363802,-0.0468 -0.0661458,-0.0883 -0.0661458,-0.0925 0,-0.024 0.2208005,-0.17676 0.3795752,-0.26248 0.073947,-0.04 0.1355853,-0.0713 0.1369731,-0.0697 0.00342,0.004 0.083149,0.19195 0.089774,0.21168 0.0042,0.0125 0.00855,0.0139 0.021292,0.006 0.059176,-0.0336 0.2358398,-0.086 0.3728415,-0.11068 0.047749,-0.009 0.087903,-0.0163 0.089233,-0.0174 0.00133,-9.9e-4 -0.00399,-0.0537 -0.011818,-0.11712 -0.011256,-0.0912 -0.012109,-0.11759 -0.00408,-0.12613 0.0076,-0.009 0.075364,-0.0108 0.2694899,-0.0108 0.1426319,0 0.2620367,0.003 0.2653439,0.006 0.00331,0.003 0.0019,0.0351 -0.00312,0.0702 -0.00502,0.0351 -0.01156,0.0904 -0.014534,0.12306 l -0.00541,0.0592 h 0.029242 c 0.082746,0 0.3395416,0.0702 0.449877,0.12313 l 0.051371,0.0246 0.021617,-0.0497 c 0.011889,-0.0273 0.033006,-0.0783 0.046927,-0.11337 0.014023,-0.0352 0.030397,-0.0636 0.036717,-0.0636 0.031718,0 0.2590342,0.13317 0.3727252,0.21836 0.066978,0.0502 0.07511,0.059 0.066145,0.0721 -0.00562,0.009 -0.037195,0.0513 -0.070164,0.0957 -0.032969,0.0446 -0.059944,0.0837 -0.059944,0.087 0,0.003 0.030696,0.0341 0.068213,0.0683 0.085259,0.0777 0.2147423,0.21881 0.2618741,0.28536 l 0.035757,0.0505 0.038254,-0.0304 c 0.02104,-0.0167 0.064835,-0.0503 0.097325,-0.0744 l 0.059072,-0.0441 0.033258,0.0459 c 0.074512,0.10274 0.2151352,0.37981 0.2188407,0.4311 0.00178,0.0246 -9.962e-4,0.0265 -0.1013115,0.0684 -0.056727,0.0237 -0.1041576,0.0442 -0.1054021,0.0456 -0.00125,10e-4 0.00723,0.0316 0.018829,0.0675 0.037316,0.11515 0.077617,0.29072 0.088152,0.38402 l 0.010254,0.0907 0.037385,-0.005 c 0.020562,-0.002 0.06808,-0.007 0.1055978,-0.0108 l 0.068213,-0.006 v 0.2304 0.23039 l -0.068213,-0.006 c -0.037518,-0.003 -0.085036,-0.009 -0.1055978,-0.0108 l -0.037385,-0.005 -0.010254,0.0907 c -0.010536,0.0932 -0.050836,0.26885 -0.088152,0.38401 -0.011601,0.0358 -0.020074,0.0662 -0.018829,0.0675 0.00125,10e-4 0.048676,0.0218 0.1054021,0.0456 0.1003158,0.042 0.1030893,0.0439 0.1013115,0.0684 -0.00371,0.0513 -0.1443283,0.32832 -0.2188407,0.4311 l -0.033258,0.0459 -0.059072,-0.0441 c -0.03249,-0.0242 -0.076285,-0.0578 -0.097325,-0.0744 l -0.038254,-0.0303 -0.035716,0.0505 c -0.019644,0.0277 -0.039675,0.0544 -0.044513,0.0592 -0.00484,0.005 -0.0174,0.0192 -0.027916,0.0319 l -0.019119,0.0232 0.1177332,0.24882 c 0.1605145,0.33922 0.1645863,0.34821 0.1645863,0.36302 0,0.007 -0.00429,0.013 -0.00954,0.013 -0.011526,0 -0.083435,-0.0423 -0.2219696,-0.13019 -0.2459659,-0.15627 -0.725122,-0.40503 -0.7801699,-0.40503 -0.00694,0 -0.014672,-0.003 -0.0172,-0.007 -0.00253,-0.004 -0.024142,-0.0128 -0.04803,-0.0189 -0.023889,-0.006 -0.056456,-0.0169 -0.072372,-0.0239 -0.053075,-0.0237 -0.1705056,-0.0518 -0.1880919,-0.0448 -0.025478,0.01 -0.030338,0.0235 -0.035723,0.0992 -0.00479,0.0674 -0.00592,0.0702 -0.039069,0.10306 -0.037982,0.0377 -0.06693,0.0439 -0.073831,0.0158 -0.00764,-0.031 -0.038705,-0.0185 -0.043624,0.0176 -0.00364,0.0267 -0.00862,0.032 -0.04202,0.0447 -0.082387,0.0312 -0.1233442,0.0278 -0.1233442,-0.0107 0,-0.0107 -0.00587,-0.0164 -0.016536,-0.0164 -0.010665,0 -0.016536,0.005 -0.016536,0.0164 0,0.0279 -0.019144,0.0378 -0.05489,0.0281 -0.1149373,-0.0306 -0.1104746,-0.028 -0.1104746,-0.067 0,-0.0248 -0.0031,-0.0301 -0.017311,-0.0301 -0.010357,0 -0.019047,0.007 -0.021635,0.0175 -0.010084,0.041 -0.083563,6.6e-4 -0.1068727,-0.0585 -0.00621,-0.0157 -0.011278,-0.0507 -0.011278,-0.0776 0,-0.0403 -0.00359,-0.0528 -0.020295,-0.0704 -0.011162,-0.0119 -0.026355,-0.0215 -0.033762,-0.0215 -0.03633,0 -0.3531385,0.10221 -0.4226155,0.13636 -0.01433,0.007 -0.029212,0.0129 -0.033073,0.013 -0.00386,1.6e-4 -0.021901,0.007 -0.040091,0.0172 -0.01819,0.01 -0.037724,0.0171 -0.043408,0.0172 -0.00568,1.6e-4 -0.010335,0.004 -0.010335,0.009 0,0.005 -0.00397,0.009 -0.00882,0.009 -0.00903,0 -0.2731035,0.13196 -0.2805702,0.1402 -0.00568,0.006 -0.033088,0.0223 -0.0934956,0.0548 -0.0281592,0.015 -0.10514868,0.0617 -0.17108785,0.1035 -0.15395767,0.0975 -0.22655817,0.14022 -0.23850607,0.14022 -0.005248,0 -0.00954,-0.006 -0.00954,-0.014 z M 2.2936882,296.328 c 0.00455,1.8e-4 0.01478,0.003 0.022738,0.006 0.012169,0.005 0.014469,10e-4 0.014469,-0.0243 0,-0.0356 -0.030567,-0.14663 -0.040371,-0.14663 -0.0097,0 -0.05304,0.15537 -0.046483,0.16664 0.00318,0.005 0.013231,0.006 0.02347,0.003 0.00985,-0.003 0.021628,-0.006 0.026176,-0.005 z m 1.1846687,-0.0876 c 0.00968,-0.0109 0.014978,-0.0237 0.011777,-0.0285 -0.010538,-0.0156 -0.2580016,-0.12484 -0.2580016,-0.11386 0,10e-4 0.017673,0.0136 0.039274,0.0268 0.021601,0.0132 0.070624,0.0492 0.1089399,0.0797 0.038316,0.0306 0.072085,0.0556 0.07504,0.0556 0.00296,0 0.013292,-0.009 0.022972,-0.0199 z m -1.4662516,-0.0475 c 0.092413,-0.044 0.1302241,-0.0722 0.1480465,-0.11079 0.028976,-0.0628 0.00157,-0.10552 -0.073999,-0.11557 -0.081577,-0.0108 -0.1185587,-0.0317 -0.2442224,-0.13842 -0.046102,-0.0392 -0.071524,-0.0319 -0.1007654,0.0285 -0.021842,0.0452 -0.023003,0.0528 -0.017906,0.11846 0.00884,0.11385 0.032424,0.19183 0.068467,0.22646 0.043061,0.0414 0.1217021,0.0383 0.2203797,-0.009 z m 0.7817491,-8.9e-4 c 0.03742,-0.0398 0.054459,-0.0968 0.062453,-0.20905 0.00494,-0.0693 0.00349,-0.085 -0.011041,-0.11989 -0.016328,-0.0392 -0.037548,-0.0591 -0.062786,-0.0591 -0.00688,0 -0.04899,0.0292 -0.093561,0.0649 -0.093205,0.0746 -0.1206402,0.0885 -0.1922869,0.0974 -0.063904,0.007 -0.083055,0.0252 -0.083055,0.0751 0,0.0195 0.00378,0.0432 0.00839,0.0523 0.011955,0.0237 0.068202,0.0624 0.1419779,0.0977 0.054154,0.0258 0.073576,0.0306 0.1313179,0.032 l 0.067764,0.001 0.030825,-0.0328 z m 0.7909868,-0.0922 c 0.1254643,-0.17786 0.2340808,-0.44842 0.271982,-0.67753 0.018382,-0.11112 0.024664,-0.33919 0.0127,-0.46104 -0.029733,-0.30282 -0.1198669,-0.53956 -0.3188686,-0.83751 -0.016116,-0.0241 -0.065621,-0.0834 -0.1100125,-0.1316 -0.2235212,-0.24299 -0.5207298,-0.41227 -0.8375749,-0.47705 -0.084392,-0.0172 -0.2142944,-0.0333 -0.2142944,-0.0264 0,0.003 0.035758,0.0993 0.078061,0.20954 0.010178,0.0265 0.028038,0.0699 0.039688,0.0966 0.01165,0.0265 0.05545,0.13314 0.097334,0.2369 0.041884,0.10371 0.092075,0.22615 0.1115359,0.27199 0.01946,0.0459 0.049307,0.11692 0.066325,0.15793 0.036008,0.0868 0.059501,0.141 0.1230434,0.28387 0.025439,0.0572 0.046252,0.10531 0.046252,0.10692 0,10e-4 0.05581,0.12345 0.1240234,0.27083 0.068213,0.14737 0.1240234,0.2702 0.1240234,0.27293 0,0.006 0.3244013,0.69578 0.3396117,0.7216 0.0064,0.0109 0.013527,0.0195 0.015844,0.0194 0.00232,-1.7e-4 0.015963,-0.0169 0.030327,-0.0374 z m -2.5471311,-0.026 c 0.00498,-0.0108 0.072696,-0.15391 0.150474,-0.318 0.1257328,-0.26523 0.2944442,-0.62351 0.3573813,-0.75894 0.023499,-0.0506 0.1256338,-0.27922 0.1974846,-0.44212 0.023178,-0.0525 0.042142,-0.10092 0.042142,-0.10748 0,-0.022 0.024854,-0.0123 0.076719,0.0299 0.091657,0.0745 0.1640506,0.12507 0.2288495,0.15978 0.068363,0.0366 0.078088,0.0331 0.029295,-0.0107 -0.069611,-0.0624 -0.2769857,-0.28562 -0.2769857,-0.29814 0,-0.006 0.0134,-0.0453 0.029777,-0.086 0.016377,-0.0409 0.057723,-0.14736 0.091878,-0.23664 0.034155,-0.0892 0.078808,-0.20575 0.099228,-0.25884 0.046933,-0.12199 0.09342,-0.25286 0.090809,-0.25562 -0.0011,-0.001 -0.054687,0.007 -0.1190809,0.0189 -0.7961813,0.14298 -1.36096165,0.90134 -1.3005251,1.74627 0.0157947,0.22082 0.0637806,0.41084 0.15101759,0.59804 0.0443688,0.0951 0.12699981,0.23952 0.13707021,0.2394 0.00298,-4e-5 0.00949,-0.009 0.014466,-0.0197 z"
       id="path3691"
       inkscape:connector-curvature="0" />
  </g>
</svg>
