/* XPM */
static char * left_inactive_xpm[] = {
"4 16 3 1",
" 	c None",
".	c #585858",
"+	c #454545",
".+++",
".+++",
".+++",
".+++",
".+++",
".+++",
".+++",
".+++",
".+++",
".+++",
".+++",
".+++",
".+++",
".+++",
".+++",
".+++"};
