/* XPM */
static char * hide_pressed_xpm[] = {
"28 26 26 1",
" 	c None",
".	c #070706",
"+	c #14110E",
"@	c #0B0908",
"#	c #060504",
"$	c #050403",
"%	c #030302",
"&	c #030202",
"*	c #040403",
"=	c #040302",
"-	c #020101",
";	c #010101",
">	c #000000",
",	c #020302",
"'	c #050303",
")	c #030303",
"!	c #070605",
"~	c #020201",
"{	c #010201",
"]	c #010100",
"^	c #010000",
"/	c #020202",
"(	c #040404",
"_	c #050505",
":	c #060606",
"<	c #070707",
".+@#$%&$*===&&--;;;;>>>>;;,'",
")!*~;{-;;-~;--]^>>>>>>>>>>>~",
"/]]>>>>>>>]>>>>>>>>>>>>>>>>>",
";>>>>>>>>>>>>>>>>>>>>>>>>>>>",
">>>>>>>>>>>>>>>>>>>>>>>>>>>>",
">>>>>>>>>>>>>>>>>>>>>>>>>>>>",
">>>>>>>>>>>>>>>>>>>>>>>>>>>>",
">>>>>>>>>>>>>>>>>>>>>>>>>>>>",
">>>>>>>>>>>>>>>>>>>>>>>>>>>>",
">>>>>>>>>>>>>>>>>>>>>>>>>>>>",
">>>>>>>>>>>>>>>>>>>>>>>>>>>>",
">>>>>>>>>>>>>>>>>>>>>>>>>>>>",
">>>>>>>>>>>>>>>>>>>>>>^^>>>>",
">>>>>>>>>>>>>>>>>>>>>^^^>>>>",
">>>>>>>>>>>>>>>>>>>>>>>>>>>>",
">>>>>>>>>>>>>>>>>>>>>>>>>>>>",
">>>>>>>>>>>>>>>>>>>>>>>>>>>>",
">>>>>>>>>>>>>>>>>>>>>>>>>>>>",
">>>>>>>>>>>>>>>>>>>>>>>>>>>>",
">>>>>>>>>>>>>>>>>>>>>>>>>>>>",
">>>>>>>>>>>>>>>>>>>>>>>>>>>>",
">>>>>>>>>>>>>>>>>>>>>>>>>>>>",
">>>>>>>>>>>>>>>>>>>>>>>>>>>>",
">>>>>>;>;;;;/;;>>>>>>>>>>>>>",
"/;////)//)))())//;>>>>>>>>>>",
"))(((((___::<::());;>>>>>>>;"};
