/* XPM */
static char * maximize_pressed_xpm[] = {
"28 26 14 1",
" 	c None",
".	c #000000",
"+	c #010000",
"@	c #020100",
"#	c #020101",
"$	c #010100",
"%	c #020000",
"&	c #030000",
"*	c #040100",
"=	c #050100",
"-	c #070100",
";	c #060100",
">	c #000101",
",	c #010101",
"............................",
"............................",
"............................",
"............................",
"............................",
"............................",
"............................",
"..........+++..+............",
"...........+++++............",
"............@#@.............",
"..........+$+@+++........++%",
"..........+++.+$........++&*",
"...........+$$$.........+&=-",
"......................++%*;-",
".......................+++++",
"........................>,,,",
"............................",
"............................",
"............................",
"............................",
"............................",
"............................",
"............................",
"............................",
"............................",
"............................"};
