<?xml version="1.0" encoding="UTF-8" standalone="no"?>
<!-- Created with Inkscape (http://www.inkscape.org/) -->

<svg
   xmlns:dc="http://purl.org/dc/elements/1.1/"
   xmlns:cc="http://creativecommons.org/ns#"
   xmlns:rdf="http://www.w3.org/1999/02/22-rdf-syntax-ns#"
   xmlns:svg="http://www.w3.org/2000/svg"
   xmlns="http://www.w3.org/2000/svg"
   xmlns:sodipodi="http://sodipodi.sourceforge.net/DTD/sodipodi-0.dtd"
   xmlns:inkscape="http://www.inkscape.org/namespaces/inkscape"
   width="200"
   height="200"
   viewBox="0 0 52.916665 52.916668"
   version="1.1"
   id="svg8"
   inkscape:version="0.92.1 r"
   sodipodi:docname="drawing.svg">
  <defs
     id="defs2" />
  <sodipodi:namedview
     id="base"
     pagecolor="#ffffff"
     bordercolor="#666666"
     borderopacity="1.0"
     inkscape:pageopacity="0.0"
     inkscape:pageshadow="2"
     inkscape:zoom="0.7"
     inkscape:cx="-147.34766"
     inkscape:cy="183.30406"
     inkscape:document-units="mm"
     inkscape:current-layer="layer1"
     showgrid="false"
     units="px"
     inkscape:window-width="1600"
     inkscape:window-height="853"
     inkscape:window-x="0"
     inkscape:window-y="0"
     inkscape:window-maximized="1" />
  <metadata
     id="metadata5">
    <rdf:RDF>
      <cc:Work
         rdf:about="">
        <dc:format>image/svg+xml</dc:format>
        <dc:type
           rdf:resource="http://purl.org/dc/dcmitype/StillImage" />
        <dc:title></dc:title>
      </cc:Work>
    </rdf:RDF>
  </metadata>
  <g
     inkscape:label="Layer 1"
     inkscape:groupmode="layer"
     id="layer1"
     transform="translate(0,-244.08332)">
    <g
       id="g21"
       transform="translate(-9.7984526e-8,-0.37797669)">
      <path
         style="fill:#f2f0f0;stroke-width:0.26961637"
         d="m 23.46538,296.6102 c -0.06649,-0.11044 -0.204015,-0.98392 -0.305616,-1.94107 -0.272229,-2.56456 -0.859853,-4.30488 -1.79184,-5.30673 -0.788384,-0.84748 -2.700077,-1.90364 -3.468387,-1.91618 -0.891569,-0.0146 -4.99242,2.00367 -6.069031,2.98686 -1.44984,1.32404 -2.0086918,1.63072 -2.6218789,1.43881 -0.2969729,-0.0929 -1.5356108,0.46706 -3.2714743,1.47907 -1.5364534,0.89576 -2.8376386,1.58518 -2.8915228,1.53205 -0.053884,-0.0531 0.6125716,-1.46603 1.4810126,-3.13977 0.868441,-1.67374 1.5237783,-3.25132 1.4563054,-3.50575 -0.1489373,-0.56161 0.6577231,-2.16978 1.7920887,-3.57273 0.4604101,-0.56942 1.1619548,-1.69003 1.5589886,-2.49024 0.6543976,-1.31892 0.7058147,-1.64234 0.5500221,-3.4597 -0.3144643,-3.66832 -2.2228023,-5.3543 -6.6315653,-5.85887 l -1.6908067,-0.19351 v -3.55464 -3.55464 l 0.8484777,-0.16734 c 0.4666627,-0.092 1.1779824,-0.16733 1.5807102,-0.16733 2.5802753,0 5.4857524,-2.35366 5.8131603,-4.7091 0.4101244,-2.95053 -0.064633,-4.46827 -2.301509,-7.35762 -0.520977,-0.67294 -1.1138047,-1.62007 -1.3173946,-2.10474 -0.3281637,-0.78123 -0.3133581,-0.98523 0.1304891,-1.79793 0.6341506,-1.16115 2.6844418,-3.03966 3.3176283,-3.03966 0.264734,0 1.0310936,0.49711 1.7030216,1.10468 3.280161,2.96599 4.495641,3.57933 6.653849,3.35756 2.050151,-0.21066 3.929235,-1.82412 4.573223,-3.92677 l 0.369,-1.2048 h 3.608528 3.608529 l 0.362966,1.2048 c 0.655383,2.17541 2.981293,4.01599 5.07495,4.01599 1.81094,0 2.98586,-0.60293 5.259911,-2.69923 0.625888,-0.57697 1.261266,-1.04903 1.411951,-1.04903 0.150684,0 0.386197,-0.19775 0.523362,-0.43944 0.567832,-1.00053 2.819651,0.5447 4.033976,2.76818 0.45937,0.84112 0.45587,0.90774 -0.107788,2.05177 -0.320418,0.65034 -0.940855,1.58736 -1.378753,2.08229 -1.877601,2.12212 -2.531708,4.51327 -1.960581,7.16708 0.273554,1.2711 0.560058,1.79333 1.462425,2.66569 1.195697,1.15594 2.930153,1.91028 4.392307,1.91028 1.766441,0 1.752904,-0.0301 1.752904,3.89437 v 3.56935 l -1.289686,0.17166 c -4.407974,0.58673 -6.617717,2.85286 -6.572271,6.73997 0.01518,1.29815 0.488908,2.58357 1.497986,4.06463 1.985891,2.91479 2.561248,3.97092 2.570776,4.71893 0.0056,0.44176 0.660745,2.0416 1.455819,3.55521 0.795077,1.51359 1.364233,2.80158 1.264794,2.86218 -0.09944,0.0606 -0.942416,-0.36467 -1.873284,-0.94506 -2.578028,-1.60735 -3.654178,-2.08621 -4.391305,-1.95401 -0.514357,0.0922 -0.991636,-0.16847 -2.030023,-1.10893 -1.406548,-1.27389 -2.875962,-2.12313 -5.090867,-2.94225 -1.227857,-0.45408 -1.3488,-0.45469 -2.522729,-0.0126 -1.284514,0.48373 -2.590089,1.63494 -3.263891,2.87798 -0.216478,0.39937 -0.537493,1.93549 -0.713362,3.4136 l -0.319767,2.68749 h -3.056472 c -1.681058,0 -3.110869,-0.0904 -3.177356,-0.2008 z m 5.89324,-14.28033 1.05293,-0.28829 -0.180089,-1.51742 c -0.337735,-2.84572 -1.899238,-5.13181 -3.505264,-5.13181 -1.281647,0 -2.142827,0.76231 -3.007488,2.66221 -0.974117,2.1404 -0.926982,4.04668 0.107022,4.32832 1.079,0.2939 4.381414,0.26226 5.532889,-0.053 z M 16.480413,268.89835 c 0.9627,-1.9503 2.225113,-4.50983 2.805363,-5.68786 1.351669,-2.74416 2.942873,-6.61715 2.783287,-6.77452 -0.226479,-0.22332 -2.709615,1.51241 -3.831204,2.67804 -1.457269,1.5145 -2.706164,3.53964 -3.104168,5.03355 -0.176538,0.66264 -0.42135,1.3259 -0.544026,1.47392 -0.368475,0.44459 -0.427629,6.82696 -0.06325,6.82434 0.111999,-8.1e-4 0.991298,-1.59717 1.953998,-3.54747 z m 22.273543,2.94654 c 0.005,-2.73367 -5.43e-4,-4.96366 -0.0133,-5.35595 -0.0084,-0.2584 -0.190241,-0.80056 -0.404092,-1.2048 -0.213852,-0.40424 -0.389573,-0.92886 -0.390493,-1.16583 -0.0034,-0.87272 -1.727916,-3.62967 -3.218641,-5.14555 -1.301076,-1.32303 -3.570848,-2.89366 -3.570848,-2.47095 0,0.3002 1.212574,3.12418 2.47115,5.75509 2.870095,5.99963 3.625338,7.46957 3.78713,7.37097 0.09214,-0.0561 0.167526,0.0694 0.167526,0.27895 0,0.38958 0.913526,2.54046 1.078992,2.54046 0.05031,0 0.09198,-0.27107 0.09258,-0.60239 z"
         id="path35"
         inkscape:connector-curvature="0" />
      <path
         style="fill:#d0cece;stroke-width:0.26961637"
         d="m 3.1907526,294.67054 c 0,-0.1302 0.5344948,-1.23799 1.1877661,-2.46174 0.6532714,-1.22375 2.3469033,-4.39364 3.7636265,-7.04419 1.4167232,-2.65056 3.7426298,-7.10832 5.1686818,-9.90613 1.426052,-2.79781 2.847872,-5.56885 3.1596,-6.15786 1.397708,-2.64098 3.427641,-6.93559 4.555778,-9.63839 0.676092,-1.61979 1.466174,-3.46302 1.755739,-4.09608 0.289564,-0.63305 0.996488,-2.44025 1.570941,-4.01599 1.444467,-3.96222 1.942823,-5.14072 2.173872,-5.14072 0.253821,0 0.609734,0.77243 2.078572,4.5111 0.656581,1.67122 1.370592,3.41818 1.586689,3.88213 0.216097,0.46396 0.840612,1.92788 1.387808,3.25316 1.735345,4.20291 8.223799,17.22128 15.520105,31.1394 1.567639,2.99036 2.783004,5.50333 2.700809,5.58438 -0.08219,0.0811 -0.859148,-0.27306 -1.726564,-0.7869 -6.788283,-4.02131 -11.988078,-6.43853 -15.883392,-7.38371 l -1.984501,-0.48154 0.09704,-2.84574 c 0.07489,-2.19623 -0.01401,-3.19393 -0.389547,-4.37121 -0.547205,-1.71549 -2.13631,-3.58589 -3.046592,-3.58589 -1.478668,0 -2.830921,1.36211 -3.588224,3.61439 -0.394919,1.17452 -0.492028,4.51577 -0.176648,6.078 0.200064,0.99101 0.200015,0.99108 -0.963698,1.28078 -4.898092,1.21936 -9.553089,3.28496 -16.1648585,7.17297 -1.5306538,0.90009 -2.7830069,1.52999 -2.7830069,1.39978 z"
         id="path33"
         inkscape:connector-curvature="0" />
      <path
         style="fill:#bebebe;stroke-width:0.26961637"
         d="M 3.6278606,293.799 C 3.87594,293.32043 6.402153,288.53135 9.2416675,283.15661 17.518223,267.49043 21.224782,259.73705 24.2807,251.69797 c 1.832965,-4.8219 2.107401,-5.48853 2.25951,-5.48853 0.07666,0 0.737201,1.47588 1.467867,3.27973 3.982198,9.83119 8.151009,18.5128 18.736384,39.0188 1.709366,3.31139 3.07261,6.05554 3.029434,6.09812 -0.04318,0.0426 -2.019936,-1.03044 -4.392801,-2.38447 -6.178574,-3.52569 -9.63446,-5.02051 -14.174837,-6.13124 -1.141809,-0.27933 -1.16699,-0.30886 -0.973526,-1.14172 0.398817,-1.71693 0.186614,-5.06925 -0.421708,-6.66203 -0.993232,-2.60059 -3.014409,-3.81779 -4.563205,-2.74807 -2.006372,1.38575 -3.04877,6.22778 -2.079792,9.6608 0.14256,0.50509 -0.0045,0.60866 -1.28763,0.90663 -4.252442,0.98753 -7.845081,2.53596 -13.9355972,6.00626 -2.4680925,1.40628 -4.5505647,2.55688 -4.6277162,2.55688 -0.077151,0 0.062699,-0.39156 0.310778,-0.87013 z M 32.627839,262.98262 c -0.09383,-0.24111 -0.285909,-0.36811 -0.426843,-0.28222 -0.15278,0.0931 -0.12567,0.31131 0.06714,0.5404 0.39719,0.47192 0.589975,0.33355 0.359703,-0.25818 z m -8.802108,0.26937 c 0,-0.0508 -0.274907,-0.32189 -0.610904,-0.6024 l -0.610904,-0.51003 0.517229,0.6024 c 0.486067,0.56611 0.704579,0.72428 0.704579,0.51003 z"
         id="path31"
         inkscape:connector-curvature="0" />
      <path
         style="fill:#908f8f;stroke-width:0.26961637"
         d="m 3.4224315,294.2006 c 3.2792982,-6.12661 10.8464225,-20.56945 12.9743875,-24.76331 3.212818,-6.33192 4.859039,-9.9784 7.34372,-16.26679 0.96002,-2.42968 1.948091,-4.92963 2.195714,-5.55546 0.247623,-0.62583 0.525512,-1.13787 0.617528,-1.13787 0.171922,0 0.998806,1.89575 2.569155,5.89013 2.695322,6.8559 6.223105,14.12295 16.60375,34.20291 2.302777,4.45441 4.133075,8.09892 4.067331,8.09892 -0.06575,0 -1.689725,-0.9171 -3.60884,-2.038 -5.2027,-3.03874 -8.524136,-4.60314 -12.445531,-5.86186 l -3.525972,-1.1318 0.132061,-1.03963 c 0.449098,-3.53545 -0.237973,-6.69648 -1.834219,-8.43874 -1.162276,-1.26859 -2.315686,-1.38948 -3.542771,-0.37133 -1.350999,1.12097 -2.052594,3.11518 -2.074409,5.89631 -0.0104,1.32528 0.04219,2.76052 0.116856,3.18943 0.114159,0.65578 0.02777,0.81131 -0.543026,0.97763 -4.50274,1.312 -6.000635,1.84449 -8.579377,3.0499 -1.65735,0.77471 -4.6856571,2.38945 -6.7295709,3.58832 -2.0439139,1.19888 -3.777264,2.17977 -3.8518893,2.17977 -0.074625,0 -0.022829,-0.21084 0.1151027,-0.46853 z m 9.5967275,-5.94263 c 2.344316,-1.14802 5.276655,-2.36327 6.516309,-2.70056 l 2.253916,-0.61325 0.02163,-2.70097 c 0.01723,-2.15093 0.149606,-3.02502 0.650045,-4.29219 2.777705,-7.03345 9.121297,-3.7529 9.06614,4.68849 l -0.01499,2.29409 2.421243,0.72682 c 2.429992,0.72946 8.634897,3.61023 11.594238,5.38291 0.870883,0.52167 1.669237,0.94849 1.774119,0.94849 0.104886,0 -0.562219,-1.41564 -1.482452,-3.14586 -1.845628,-3.47016 -2.392691,-4.06109 -6.178004,-6.67338 -1.381321,-0.95327 -2.511494,-1.77798 -2.511494,-1.8327 0,-0.17031 2.818898,0.84735 4.017875,1.45051 0.62748,0.31566 1.14087,0.53437 1.14087,0.48602 0,-0.0483 -1.821833,-3.69531 -4.048515,-8.10437 -2.226684,-4.40905 -4.866721,-9.76342 -5.866746,-11.89859 -1.764294,-3.76697 -2.193173,-4.75746 -4.637079,-10.70933 -1.049775,-2.55661 -1.178105,-2.75058 -1.417072,-2.14186 -1.530625,3.89897 -3.492427,8.73085 -4.047055,9.96783 -0.646842,1.44264 -0.661809,1.57352 -0.250689,2.19224 0.240473,0.3619 1.32517,1.40814 2.410437,2.32498 1.085268,0.91684 2.020582,1.7873 2.078477,1.93435 0.124358,0.31587 -3.263666,-1.50719 -4.475097,-2.408 -0.462092,-0.34361 -0.966315,-0.62475 -1.120495,-0.62475 -0.15418,0 -0.555131,0.63252 -0.891003,1.4056 -1.113445,2.56283 -4.134874,8.52208 -9.15595,18.05853 -2.729067,5.18328 -4.9619397,9.49287 -4.9619397,9.57687 0,0.084 0.6414491,-0.22016 1.4254425,-0.67594 0.7839934,-0.45577 3.3435192,-1.76797 5.6878352,-2.91598 z"
         id="path29"
         inkscape:connector-curvature="0" />
      <path
         style="fill:#605f5f;stroke-width:0.26961637"
         d="m 3.9747889,293.26353 c 0.4152664,-0.77308 1.8602446,-3.45375 3.2110624,-5.95706 4.0917917,-7.58281 11.2469207,-21.69062 13.3071867,-26.23784 1.788522,-3.94746 3.331718,-7.7128 5.184138,-12.64909 0.40036,-1.06687 0.789017,-1.93851 0.863683,-1.93697 0.07467,0.002 0.982817,2.07924 2.018112,4.6171 1.035295,2.53786 2.602869,6.24078 3.483499,8.22869 1.717341,3.8767 10.656745,21.72038 15.128442,30.19743 2.029116,3.84663 2.577274,5.08683 2.148262,4.86043 -0.316791,-0.16718 -1.983163,-1.14199 -3.70305,-2.16622 -1.719888,-1.02425 -3.864022,-2.2291 -4.764744,-2.67745 -2.444952,-1.21703 -7.329732,-3.09216 -9.036103,-3.46871 l -1.502449,-0.33156 0.178104,-2.0291 c 0.319459,-3.63954 -0.741081,-7.03125 -2.580879,-8.2539 -1.281919,-0.8519 -1.824713,-0.75914 -3.138496,0.53635 -1.517876,1.49675 -1.849637,2.62847 -1.896505,6.46948 l -0.03893,3.19063 -1.78248,0.48149 c -3.966471,1.07144 -8.963938,3.33697 -14.0332483,6.36177 -2.00033,1.19357 -3.6737893,2.17013 -3.7187988,2.17013 -0.045009,0 0.2579285,-0.63252 0.673194,-1.4056 z m 4.8710476,-2.85764 c 3.9215535,-2.24582 11.4017045,-5.37526 12.8478405,-5.37511 0.287816,3e-5 0.346164,-0.50056 0.269842,-2.31507 -0.117174,-2.78573 0.464185,-5.21195 1.628695,-6.79713 3.287143,-4.4746 8.158429,-0.0434 7.793171,7.0891 l -0.09933,1.93951 2.424382,0.72777 c 2.67934,0.8043 8.374247,3.41031 11.632684,5.32315 1.157323,0.6794 2.104224,1.17906 2.104224,1.11036 0,-0.0687 -0.721719,-1.5446 -1.603821,-3.27978 -1.745559,-3.4337 -2.39414,-4.12693 -6.516268,-6.96487 -1.106078,-0.7615 -1.877761,-1.38454 -1.714851,-1.38454 0.372616,0 3.606929,1.3436 4.071854,1.69154 0.190274,0.14239 0.411636,0.19412 0.491917,0.11496 0.08028,-0.0792 -1.642271,-3.68061 -3.827892,-8.00321 -2.185622,-4.3226 -4.652072,-9.30504 -5.481003,-11.07208 -2.097513,-4.47128 -6.054914,-13.80803 -6.054914,-14.28544 0,-0.21739 -0.07349,-0.32279 -0.163309,-0.23422 -0.240064,0.23672 -4.993896,12.05607 -4.994727,12.41828 -8.05e-4,0.35054 3.997348,4.10938 4.371003,4.10938 0.134204,0 0.244008,0.12293 0.244008,0.27318 0,0.34631 -1.851309,-0.5672 -3.846578,-1.89805 l -1.538718,-1.02633 -4.227293,8.35359 c -4.077747,8.05808 -7.3033613,14.24726 -9.8217483,18.84557 -0.6603527,1.20574 -1.2006413,2.2738 -1.2006413,2.37346 0,0.0997 0.2749068,0.007 0.610904,-0.20668 0.3359971,-0.21334 1.506251,-0.90064 2.6005641,-1.52734 z"
         id="path27"
         inkscape:connector-curvature="0" />
      <path
         style="fill:#2e2e2e;stroke-width:0.26961637"
         d="M 4.7692945,291.92487 C 15.591196,271.98516 22.374996,257.91388 25.87302,248.15051 c 0.276979,-0.77308 0.571721,-1.4056 0.654981,-1.4056 0.08326,0 0.444466,0.753 0.802681,1.67333 0.358215,0.92033 0.952228,2.32891 1.320031,3.13017 0.367799,0.80126 0.950504,2.19503 1.294896,3.09725 1.731036,4.53492 8.093283,17.50092 16.526769,33.68089 3.571985,6.85299 3.593652,6.58154 -0.326237,4.08733 -3.68605,-2.3454 -10.050866,-5.26227 -13.496242,-6.18504 l -2.172103,-0.58175 0.08784,-2.51697 c 0.11485,-3.29102 -0.610171,-5.77237 -2.122302,-7.26344 -0.609177,-0.6007 -1.284481,-1.00939 -1.666893,-1.0088 -1.194919,0.002 -2.403741,0.99876 -3.172627,2.61643 -0.666238,1.4017 -0.728375,1.81289 -0.728375,4.81996 v 3.28752 l -1.086052,0.27353 c -4.145889,1.0442 -9.699757,3.51706 -14.8776103,6.62425 -1.7614063,1.05701 -3.26646,1.92183 -3.3445636,1.92183 -0.078104,0 0.4628344,-1.11444 1.2020844,-2.47653 z m 2.8770293,-0.74093 c 2.6700042,-1.66279 9.2660002,-4.68933 12.0245682,-5.51741 l 2.484805,-0.74591 -0.152001,-1.78782 c -0.420049,-4.94059 2.207437,-9.56743 5.079861,-8.94532 2.632545,0.57015 4.696225,5.04232 4.253623,9.21795 l -0.162611,1.53413 2.909768,0.95576 c 3.519189,1.15594 6.26536,2.40117 10.279119,4.661 1.66383,0.93677 3.092387,1.70321 3.174572,1.70321 0.08218,0 -0.647811,-1.53611 -1.622214,-3.41359 -1.89346,-3.64833 -2.28563,-4.07369 -6.443983,-6.98935 -1.782371,-1.24973 -1.391164,-1.25583 1.391332,-0.0217 0.933326,0.41396 1.696956,0.71711 1.696956,0.67367 0,-0.0435 -1.975487,-3.98161 -4.389972,-8.75147 -5.002294,-9.88213 -6.772324,-13.66498 -9.538057,-20.38442 -1.075512,-2.61298 -2.016565,-4.74885 -2.091231,-4.74638 -0.07467,0.002 -0.794973,1.7187 -1.600683,3.81382 -0.805709,2.09512 -1.940525,4.89363 -2.521813,6.21891 l -1.056887,2.4096 2.284145,2.18752 c 1.25628,1.20313 2.085644,2.11404 1.843032,2.02424 -0.648407,-0.24 -3.047977,-1.65076 -3.800163,-2.23419 -0.840221,-0.65172 -1.042926,-0.63623 -1.274395,0.0974 -0.275069,0.87178 -6.766801,13.61245 -11.1862407,21.95411 -2.0869061,3.93903 -3.6850895,7.16186 -3.551519,7.16186 0.1335708,0 1.0200655,-0.48401 1.9699885,-1.07559 z"
         id="path25"
         inkscape:connector-curvature="0" />
      <path
         style="fill:#040404;stroke-width:0.26961637"
         d="m 4.74156,292.19228 c 0.6833099,-1.21466 1.415939,-2.61469 1.6280644,-3.11118 0.2121257,-0.49648 0.6649942,-1.33984 1.0063747,-1.87413 0.9323608,-1.45922 10.3114909,-19.74031 12.1740509,-23.72874 1.928382,-4.12939 4.45723,-10.17366 5.852029,-13.98711 0.551663,-1.50828 1.065982,-2.7432 1.142929,-2.74427 0.07695,-0.001 0.363667,0.63058 0.637157,1.40366 0.636067,1.798 3.848442,9.3298 5.680969,13.31972 1.574566,3.42826 11.53902,23.17568 14.698914,29.13011 l 2.032152,3.82934 -1.005545,-0.59828 c -0.553053,-0.32906 -1.544509,-0.95697 -2.20324,-1.39536 -0.658731,-0.43839 -3.163438,-1.77735 -5.566014,-2.97547 -3.964875,-1.97721 -6.059133,-2.7918 -9.28242,-3.61053 l -1.112915,-0.28269 0.250713,-1.54004 c 0.42107,-2.58648 -0.180662,-5.41005 -1.618079,-7.59264 -1.739189,-2.64082 -4.521175,-1.7961 -5.825631,1.76888 -0.623545,1.7041 -0.821163,4.87397 -0.404142,6.48263 0.206885,0.79806 0.167637,0.87193 -0.543026,1.02202 -3.89226,0.822 -11.413337,4.11939 -15.8663866,6.95613 -3.0951351,1.9717 -3.0567684,1.98251 -1.6759544,-0.47205 z m 3.3272099,-1.14637 c 4.3854701,-2.59466 7.6121141,-4.05503 11.5390321,-5.22254 l 2.434136,-0.72369 0.04148,-2.77873 c 0.05379,-3.60371 0.593606,-5.33087 2.14391,-6.8596 0.941654,-0.92854 1.341379,-1.13993 2.155534,-1.13993 2.975748,0 4.881402,3.33367 4.832896,8.45448 l -0.02302,2.43048 1.407365,0.34608 c 3.367715,0.82814 8.170118,2.9546 12.675147,5.61243 1.269322,0.74886 2.34195,1.2609 2.383617,1.13786 0.04167,-0.12303 -0.719721,-1.7265 -1.691971,-3.56325 -1.590476,-3.00469 -1.949378,-3.48559 -3.5793,-4.79589 -0.996362,-0.80098 -2.312049,-1.79712 -2.923745,-2.21364 -1.382457,-0.94135 -0.495226,-0.74399 1.833385,0.40782 0.8734,0.43201 1.533532,0.68738 1.46696,0.56748 -0.841769,-1.51605 -10.111444,-20.18349 -10.611136,-21.36891 -0.372432,-0.88352 -1.053793,-2.4076 -1.514135,-3.38685 -0.460342,-0.97926 -1.256535,-2.86457 -1.769322,-4.18959 -1.359557,-3.51305 -2.096845,-5.14088 -2.32844,-5.14088 -0.11239,0 -0.911499,1.83732 -1.775799,4.08293 -0.8643,2.24561 -1.979107,4.97145 -2.477349,6.05742 -0.498242,1.08597 -0.905895,2.12922 -0.905895,2.31834 0,0.18912 0.946901,1.20601 2.104225,2.25977 1.665756,1.51668 1.906206,1.8217 1.153929,1.46379 -0.522662,-0.24866 -1.530936,-0.85892 -2.240609,-1.35612 -0.709673,-0.49721 -1.381668,-0.90331 -1.493321,-0.90245 -0.111654,8.5e-4 -1.789312,3.16345 -3.728131,7.02799 -1.938818,3.86454 -4.636868,9.13484 -5.995666,11.71177 -1.3587974,2.57693 -3.0018893,5.70941 -3.6513155,6.96106 -0.6494259,1.25165 -1.4029835,2.59553 -1.6745727,2.98639 -0.4494578,0.64685 -0.6463747,1.29734 -0.3927328,1.29734 0.055586,0 1.2277679,-0.66662 2.6048489,-1.48136 z"
         id="path23"
         inkscape:connector-curvature="0" />
    </g>
  </g>
</svg>
