<?xml version="1.0" encoding="UTF-8" standalone="no"?>
<!-- Created with Inkscape (http://www.inkscape.org/) -->

<svg
   xmlns:dc="http://purl.org/dc/elements/1.1/"
   xmlns:cc="http://creativecommons.org/ns#"
   xmlns:rdf="http://www.w3.org/1999/02/22-rdf-syntax-ns#"
   xmlns:svg="http://www.w3.org/2000/svg"
   xmlns="http://www.w3.org/2000/svg"
   xmlns:sodipodi="http://sodipodi.sourceforge.net/DTD/sodipodi-0.dtd"
   xmlns:inkscape="http://www.inkscape.org/namespaces/inkscape"
   width="200"
   height="200"
   viewBox="0 0 52.916665 52.916668"
   version="1.1"
   id="svg8"
   inkscape:version="0.92.1 r"
   sodipodi:docname="whiskermenu.svg">
  <defs
     id="defs2" />
  <sodipodi:namedview
     id="base"
     pagecolor="#ffb0ff"
     bordercolor="#666666"
     borderopacity="1.0"
     inkscape:pageopacity="0"
     inkscape:pageshadow="2"
     inkscape:zoom="1.979899"
     inkscape:cx="-41.753737"
     inkscape:cy="119.51006"
     inkscape:document-units="mm"
     inkscape:current-layer="layer1"
     showgrid="false"
     units="px"
     inkscape:window-width="1600"
     inkscape:window-height="851"
     inkscape:window-x="0"
     inkscape:window-y="0"
     inkscape:window-maximized="1" />
  <metadata
     id="metadata5">
    <rdf:RDF>
      <cc:Work
         rdf:about="">
        <dc:format>image/svg+xml</dc:format>
        <dc:type
           rdf:resource="http://purl.org/dc/dcmitype/StillImage" />
        <dc:title></dc:title>
      </cc:Work>
    </rdf:RDF>
  </metadata>
  <g
     inkscape:label="Layer 1"
     inkscape:groupmode="layer"
     id="layer1"
     transform="translate(0,-244.08332)">
    <path
       style="fill:#fefefe;stroke-width:0.10291947"
       d="m 4.7092624,294.9506 c 0,-0.13782 2.864664,-5.85775 3.08816,-6.16618 0.04102,-0.0567 0.202031,-0.39054 0.3578,-0.74205 l 0.283216,-0.63913 -0.531124,-0.66758 -0.531124,-0.66757 -1.050458,0.74604 c -0.577751,0.41033 -1.104528,0.77871 -1.170615,0.81863 -0.280324,0.16933 -3.132552,-4.72655 -3.383017,-5.80699 -0.05855,-0.25254 -0.02085,-0.28379 0.639912,-0.53041 0.386167,-0.14413 0.964853,-0.36117 1.285969,-0.48231 l 0.583848,-0.22025 -0.239906,-0.69031 c -0.575027,-1.65463 -1.185068,-4.18082 -1.185068,-4.90741 0,-0.32733 0.01639,-0.32726 -2.34123701,-0.009 l -0.334462,0.0451 v -3.17781 -3.1778 l 0.334462,0.0436 c 0.183954,0.0241 0.66750501,0.0906 1.07455601,0.14792 1.152371,0.16233 1.266681,0.14825 1.266681,-0.15601 0,-0.72624 0.609991,-3.25258 1.184582,-4.90605 l 0.239419,-0.68896 -0.686273,-0.2586 c -0.37745,-0.14222 -0.956382,-0.35802 -1.286516,-0.47954 -0.561272,-0.20661 -0.596137,-0.23864 -0.537,-0.49343 0.25173,-1.08454 3.103052,-5.98083 3.38405,-5.81111 0.06609,0.0399 0.592103,0.40777 1.168925,0.81743 l 1.048768,0.74484 0.560017,-0.68793 c 0.705212,-0.86628 1.870274,-2.06018 2.7710286,-2.83957 0.382059,-0.33059 0.694653,-0.63616 0.694653,-0.67902 0,-0.0429 -0.370481,-0.52629 -0.823292,-1.07426 -0.452811,-0.54799 -0.8232916,-1.03601 -0.8232916,-1.08451 0,-0.28242 2.7482196,-2.0736 4.7244286,-3.07921 0.920395,-0.46834 1.687579,-0.83614 1.704852,-0.81732 0.0426,0.0464 1.034918,2.25162 1.117384,2.48317 0.05232,0.14691 0.106378,0.1628 0.265009,0.0779 0.736544,-0.39424 2.935408,-1.00949 4.640617,-1.29845 0.594314,-0.1007 1.094102,-0.19253 1.110642,-0.20404 0.01654,-0.0115 -0.04966,-0.62978 -0.147101,-1.37392 -0.140102,-1.06989 -0.150716,-1.37948 -0.05073,-1.47953 0.09465,-0.0948 0.938022,-0.12654 3.354238,-0.12654 1.775285,0 3.261472,0.0336 3.302636,0.0746 0.04116,0.041 0.02373,0.41155 -0.03875,0.82341 -0.06248,0.41186 -0.14388,1.06148 -0.180897,1.4436 l -0.0673,0.69476 h 0.363866 c 1.029901,0 4.226146,0.82466 5.599449,1.44471 l 0.639397,0.2887 0.269054,-0.58366 c 0.147981,-0.321 0.410818,-0.91945 0.584083,-1.32988 0.174548,-0.41346 0.378334,-0.74622 0.456996,-0.74622 0.394787,0 3.224101,1.56228 4.63917,2.56164 0.833647,0.58874 0.934857,0.69267 0.823292,0.84543 -0.06996,0.0959 -0.462952,0.60168 -0.873311,1.12418 -0.41036,0.52248 -0.746109,0.98221 -0.746109,1.0216 0,0.0394 0.382059,0.39984 0.84902,0.80099 1.061176,0.91162 2.672817,2.56682 3.259448,3.34753 l 0.445046,0.59227 0.476126,-0.35632 c 0.261869,-0.19596 0.806985,-0.58891 1.211368,-0.87319 l 0.735243,-0.51688 0.413955,0.53824 c 0.927427,1.20585 2.677706,4.45551 2.723827,5.0572 0.02213,0.28868 -0.0124,0.31065 -1.260986,0.80254 -0.706055,0.27815 -1.29641,0.5184 -1.3119,0.5339 -0.01549,0.0154 0.08997,0.37179 0.234363,0.79177 0.464459,1.35095 0.966068,3.41044 1.097197,4.50486 l 0.127623,1.06514 0.465314,-0.0569 c 0.255924,-0.0313 0.847374,-0.0882 1.314335,-0.12635 l 0.84902,-0.0694 v 2.7027 2.7027 l -0.84902,-0.0694 c -0.466961,-0.0381 -1.058411,-0.0951 -1.314335,-0.12636 l -0.465314,-0.0569 -0.127623,1.06515 c -0.131129,1.0944 -0.632738,3.1539 -1.097197,4.50486 -0.14439,0.41998 -0.249854,0.77628 -0.234363,0.79177 0.01549,0.0155 0.605845,0.25575 1.3119,0.53389 1.248587,0.49189 1.283113,0.51387 1.260986,0.80254 -0.04612,0.60168 -1.7964,3.85135 -2.723827,5.0572 l -0.413955,0.53823 -0.735243,-0.51687 c -0.404383,-0.28429 -0.949499,-0.67722 -1.211368,-0.87319 l -0.476126,-0.35633 -0.444547,0.59228 c -0.244501,0.32576 -0.493818,0.63861 -0.554035,0.69522 -0.06022,0.0566 -0.216575,0.22528 -0.34746,0.37482 l -0.237972,0.27191 1.465379,2.91885 c 1.997865,3.9795 2.048545,4.08485 2.048545,4.25855 0,0.084 -0.05344,0.15275 -0.118749,0.15275 -0.143461,0 -1.038488,-0.49478 -2.762772,-1.52729 -3.061444,-1.83319 -9.02532,-4.75128 -9.710479,-4.75128 -0.08628,0 -0.182624,-0.0416 -0.21409,-0.0925 -0.03147,-0.0509 -0.300483,-0.15087 -0.597815,-0.22209 -0.297331,-0.0712 -0.702688,-0.19782 -0.900792,-0.28133 -0.660603,-0.27845 -2.122219,-0.60661 -2.341109,-0.52562 -0.317118,0.11732 -0.377602,0.27549 -0.444637,1.16273 -0.05965,0.78945 -0.07376,0.82455 -0.486266,1.20939 -0.472749,0.44105 -0.833055,0.51361 -0.918953,0.18509 -0.09509,-0.3637 -0.481742,-0.2165 -0.542964,0.20669 -0.04537,0.31361 -0.107263,0.37563 -0.523011,0.5241 -1.025445,0.36622 -1.535219,0.32623 -1.535219,-0.12043 0,-0.12463 -0.07308,-0.19326 -0.205823,-0.19326 -0.132741,0 -0.205823,0.0686 -0.205823,0.19326 0,0.32727 -0.238286,0.44248 -0.683195,0.33032 -1.43058,-0.36064 -1.375035,-0.32885 -1.375035,-0.78697 0,-0.29083 -0.03853,-0.35417 -0.215457,-0.35417 -0.128909,0 -0.237079,0.0827 -0.269282,0.20585 -0.125487,0.47994 -1.040081,0.008 -1.330205,-0.68664 -0.07721,-0.18481 -0.140374,-0.59435 -0.140374,-0.9101 0,-0.47228 -0.04479,-0.61889 -0.252602,-0.82673 -0.13893,-0.13895 -0.328032,-0.25264 -0.420226,-0.25264 -0.452187,0 -4.395381,1.19911 -5.260136,1.59959 -0.178358,0.0826 -0.363599,0.15175 -0.411646,0.15367 -0.04805,0.002 -0.272599,0.0929 -0.499004,0.20236 -0.226406,0.10938 -0.469534,0.20044 -0.540286,0.20237 -0.07075,0.002 -0.128639,0.0498 -0.128639,0.10641 0,0.0567 -0.04939,0.10293 -0.10975,0.10293 -0.112413,0 -3.399217,1.54804 -3.492152,1.64476 -0.07068,0.0736 -0.411834,0.26199 -1.1637026,0.64277 -0.350487,0.1775 -1.308746,0.72372 -2.129466,1.21381 -1.916253,1.14429 -2.819884,1.64504 -2.968595,1.64504 -0.06531,0 -0.118749,-0.0737 -0.118749,-0.16386 z m 21.7657806,-9.12805 c 0.0566,0.002 0.183954,0.0375 0.283007,0.0786 0.151457,0.0629 0.180095,0.0174 0.180095,-0.28568 0,-0.41773 -0.380452,-1.72016 -0.502472,-1.72016 -0.120716,0 -0.660173,1.8228 -0.578549,1.9549 0.03958,0.0641 0.164671,0.0812 0.292118,0.0402 0.122589,-0.0395 0.2692,-0.0701 0.325801,-0.0679 z m 14.745124,-1.02816 c 0.120464,-0.12826 0.186424,-0.27878 0.146578,-0.33452 -0.131156,-0.18346 -3.211248,-1.46451 -3.211248,-1.33561 0,0.017 0.219974,0.1586 0.48883,0.31449 0.268856,0.1559 0.879027,0.57715 1.355933,0.93613 0.476907,0.35898 0.897204,0.65269 0.933993,0.65269 0.03679,0 0.16545,-0.10494 0.285914,-0.23318 z m -18.24988,-0.55628 c 1.15023,-0.51508 1.62085,-0.84704 1.842678,-1.29974 0.360662,-0.73605 0.01952,-1.23818 -0.921041,-1.35571 -1.015361,-0.12689 -1.475656,-0.37277 -3.039745,-1.62378 -0.57382,-0.45897 -0.890232,-0.3747 -1.254189,0.33402 -0.271853,0.52936 -0.286315,0.61953 -0.22287,1.38952 0.110045,1.33551 0.403562,2.25051 0.852184,2.65657 0.535957,0.48511 1.514781,0.44911 2.742983,-0.10088 z m 9.730136,-0.01 c 0.465749,-0.46673 0.677828,-1.13584 0.777336,-2.45249 0.06146,-0.81316 0.04344,-0.99753 -0.137418,-1.40646 -0.20323,-0.4595 -0.467343,-0.69408 -0.781472,-0.69408 -0.08572,0 -0.609752,0.34265 -1.16452,0.76142 -1.160087,0.87572 -1.501563,1.03869 -2.393323,1.14221 -0.795384,0.0923 -1.033766,0.29575 -1.033766,0.88218 0,0.23017 0.047,0.50632 0.104454,0.61368 0.148796,0.27808 0.848888,0.73198 1.767145,1.14572 0.674038,0.30371 0.915772,0.35908 1.634464,0.37437 l 0.843435,0.0179 0.383665,-0.38448 z m 9.845115,-1.08241 c 1.561606,-2.08635 2.913515,-5.26039 3.385258,-7.94796 0.228795,-1.30348 0.306994,-3.9791 0.158071,-5.40859 -0.370076,-3.55235 -1.491938,-6.32946 -3.968839,-9.82468 -0.200586,-0.28305 -0.816762,-0.97781 -1.369283,-1.54391 -2.782084,-2.85046 -6.481328,-4.83623 -10.424979,-5.59619 -1.050399,-0.20241 -2.667241,-0.39027 -2.667241,-0.30989 0,0.038 0.44507,1.16399 0.971603,2.45801 0.126689,0.31136 0.348981,0.82085 0.493981,1.13221 0.145001,0.31136 0.690167,1.56192 1.211481,2.77904 0.521313,1.21711 1.146024,2.65296 1.388245,3.19075 0.24222,0.5378 0.613702,1.37151 0.825515,1.8527 0.448172,1.01813 0.740589,1.65395 1.531475,3.32998 0.316625,0.67097 0.575682,1.23516 0.575682,1.25373 0,0.0186 0.694652,1.44828 1.543672,3.17712 0.84902,1.72883 1.543673,3.16965 1.543673,3.20182 0,0.0763 4.037701,8.16206 4.227019,8.4649 0.07963,0.12738 0.168366,0.23015 0.197202,0.22841 0.02884,-0.002 0.198696,-0.19861 0.377465,-0.43745 z m -31.703181,-0.3064 c 0.06203,-0.12693 0.904826,-1.80557 1.872894,-3.73032 1.564948,-3.11147 3.664835,-7.31448 4.448189,-8.90322 0.292482,-0.59319 1.563717,-3.27551 2.458017,-5.18644 0.288491,-0.61645 0.524529,-1.18384 0.524529,-1.26087 0,-0.25769 0.309344,-0.1441 0.954882,0.35061 1.140819,0.87428 2.041876,1.46724 2.848403,1.87443 0.85089,0.4296 0.971933,0.38807 0.364631,-0.12511 -0.866428,-0.73213 -3.447536,-3.35065 -3.447536,-3.49751 0,-0.076 0.166784,-0.53053 0.370631,-1.00999 0.203847,-0.47947 0.718452,-1.72864 1.143568,-2.77592 0.425116,-1.04729 0.980893,-2.41365 1.235059,-3.03636 0.584158,-1.4312 1.162761,-2.96637 1.130266,-2.99886 -0.0137,-0.0137 -0.680667,0.0861 -1.482155,0.22175 -9.909769,1.67735 -16.9393766,10.57357 -16.1871456,20.48541 0.19659,2.59039 0.793852,4.81959 1.879659,7.01559 0.552242,1.11689 1.5807196,2.80989 1.7060616,2.8084 0.037,-4.1e-4 0.118022,-0.10466 0.180047,-0.23159 z"
       id="path3691"
       inkscape:connector-curvature="0" />
  </g>
</svg>
