<?xml version="1.0" encoding="UTF-8" standalone="no"?>
<!-- Created with Inkscape (http://www.inkscape.org/) -->

<svg
   xmlns:dc="http://purl.org/dc/elements/1.1/"
   xmlns:cc="http://creativecommons.org/ns#"
   xmlns:rdf="http://www.w3.org/1999/02/22-rdf-syntax-ns#"
   xmlns:svg="http://www.w3.org/2000/svg"
   xmlns="http://www.w3.org/2000/svg"
   xmlns:sodipodi="http://sodipodi.sourceforge.net/DTD/sodipodi-0.dtd"
   xmlns:inkscape="http://www.inkscape.org/namespaces/inkscape"
   width="32"
   height="32"
   viewBox="0 0 8.4666664 8.4666669"
   version="1.1"
   id="svg8"
   inkscape:version="0.92.1 r"
   sodipodi:docname="start-here-kde.svg">
  <defs
     id="defs2" />
  <sodipodi:namedview
     id="base"
     pagecolor="#ffb0ff"
     bordercolor="#666666"
     borderopacity="1.0"
     inkscape:pageopacity="0"
     inkscape:pageshadow="2"
     inkscape:zoom="1.979899"
     inkscape:cx="-41.753737"
     inkscape:cy="119.51006"
     inkscape:document-units="mm"
     inkscape:current-layer="layer1"
     showgrid="false"
     units="px"
     inkscape:window-width="1600"
     inkscape:window-height="855"
     inkscape:window-x="0"
     inkscape:window-y="0"
     inkscape:window-maximized="1" />
  <metadata
     id="metadata5">
    <rdf:RDF>
      <cc:Work
         rdf:about="">
        <dc:format>image/svg+xml</dc:format>
        <dc:type
           rdf:resource="http://purl.org/dc/dcmitype/StillImage" />
        <dc:title></dc:title>
      </cc:Work>
    </rdf:RDF>
  </metadata>
  <g
     inkscape:label="Layer 1"
     inkscape:groupmode="layer"
     id="layer1"
     transform="translate(0,-288.53332)">
    <path
       style="fill:#fefefe;stroke-width:0.01703518"
       d="m 1.0423954,297.09164 c 0,-0.0235 0.460312,-0.99874 0.4962247,-1.05133 0.0066,-0.0101 0.032464,-0.0666 0.057494,-0.12652 l 0.045508,-0.10897 -0.085345,-0.11382 -0.085345,-0.11382 -0.1687941,0.1272 c -0.092836,0.07 -0.1774825,0.13277 -0.1881017,0.13958 -0.045044,0.0288 -0.50335793,-0.80587 -0.5436042,-0.99008 -0.009408,-0.0431 -0.00335,-0.0484 0.10282509,-0.0904 0.0620517,-0.0246 0.15503856,-0.0616 0.20663747,-0.0823 l 0.0938163,-0.0375 -0.0385496,-0.1177 c -0.0923989,-0.28211 -0.19042408,-0.71283 -0.19042408,-0.83671 0,-0.0558 0.002634,-0.0557 -0.37620448,-0.002 l -0.0537434,0.008 v -0.54182 -0.54181 l 0.0537434,0.007 c 0.0295588,0.004 0.10725884,0.0155 0.17266632,0.0252 0.18517012,0.0277 0.20353816,0.0253 0.20353816,-0.0266 0,-0.12382 0.0980171,-0.55456 0.19034599,-0.83648 l 0.0384713,-0.11746 -0.11027461,-0.0441 c -0.060651,-0.0243 -0.15367739,-0.061 -0.20672537,-0.0817 -0.0901886,-0.0352 -0.095791,-0.0407 -0.0862885,-0.0842 0.0404495,-0.1849 0.49861761,-1.01972 0.54377011,-0.99078 0.01062,0.007 0.095143,0.0695 0.1878301,0.13937 l 0.1685225,0.12699 0.089987,-0.11728 c 0.1133179,-0.1477 0.3005272,-0.35126 0.445266,-0.48415 0.061392,-0.0563 0.1116212,-0.10846 0.1116212,-0.11576 0,-0.007 -0.059531,-0.0897 -0.1322917,-0.18317 -0.07276,-0.0934 -0.1322916,-0.17664 -0.1322916,-0.18491 0,-0.0481 0.4416011,-0.35354 0.7591505,-0.52499 0.1478948,-0.0798 0.2711707,-0.14257 0.2739463,-0.13936 0.00684,0.008 0.166297,0.3839 0.1795482,0.42338 0.0084,0.0251 0.017093,0.0277 0.042583,0.0133 0.1183525,-0.0672 0.4716795,-0.17212 0.7456831,-0.22138 0.095498,-0.0172 0.1758071,-0.0329 0.1784648,-0.0348 0.00266,-0.002 -0.00798,-0.10738 -0.023638,-0.23425 -0.022513,-0.18242 -0.024217,-0.2352 -0.00816,-0.25226 0.015208,-0.0162 0.1507271,-0.0215 0.5389798,-0.0215 0.2852637,0 0.5240735,0.006 0.5306879,0.0127 0.00662,0.007 0.00381,0.0702 -0.00622,0.14039 -0.010038,0.0702 -0.02312,0.18098 -0.029068,0.24614 l -0.010814,0.11845 h 0.058469 c 0.1654909,0 0.6790834,0.14061 0.8997543,0.24632 l 0.1027426,0.0493 0.043233,-0.0995 c 0.023778,-0.0547 0.066013,-0.15676 0.093854,-0.22674 0.028047,-0.0705 0.060793,-0.12723 0.073433,-0.12723 0.063437,0 0.5180685,0.26637 0.7454506,0.43676 0.1339556,0.10036 0.1502187,0.11809 0.1322917,0.14414 -0.011242,0.0164 -0.07439,0.10259 -0.140329,0.19168 -0.065939,0.089 -0.1198895,0.16746 -0.1198895,0.17417 0,0.007 0.061392,0.0682 0.1364259,0.13657 0.1705162,0.15543 0.4294848,0.43764 0.5237483,0.57075 l 0.071513,0.10097 0.076507,-0.0607 c 0.042079,-0.0334 0.1296714,-0.10047 0.1946501,-0.14887 l 0.1181434,-0.0881 0.066517,0.0918 c 0.1490248,0.2056 0.4302704,0.75966 0.4376814,0.86225 0.00356,0.0492 -0.002,0.0529 -0.202623,0.13683 -0.1134533,0.0475 -0.2083153,0.0884 -0.2108042,0.091 -0.00249,0.003 0.014457,0.0634 0.037659,0.13499 0.074632,0.23034 0.1552337,0.58148 0.1763044,0.76807 l 0.020507,0.18161 0.07477,-0.0101 c 0.041123,-0.005 0.1361613,-0.0151 0.2111955,-0.0215 l 0.1364258,-0.0118 v 0.4608 0.46081 l -0.1364258,-0.012 c -0.075034,-0.006 -0.1700721,-0.0162 -0.2111955,-0.0215 l -0.07477,-0.0101 -0.020507,0.1816 c -0.021071,0.1866 -0.1016727,0.53774 -0.1763044,0.76808 -0.023201,0.0716 -0.040148,0.13235 -0.037659,0.13499 0.00249,0.003 0.097351,0.0436 0.2108042,0.091 0.2006307,0.0839 0.2061786,0.0876 0.2026231,0.13683 -0.00741,0.10258 -0.2886566,0.65665 -0.4376815,0.86224 l -0.066517,0.0918 -0.1181434,-0.0881 c -0.064979,-0.0485 -0.1525713,-0.11546 -0.1946501,-0.14888 l -0.076507,-0.0607 -0.071433,0.10097 c -0.039287,0.0555 -0.07935,0.10888 -0.089026,0.11853 -0.00968,0.0101 -0.034801,0.0384 -0.055833,0.0639 l -0.038239,0.0463 0.2354662,0.49765 c 0.3210293,0.6785 0.3291729,0.69647 0.3291729,0.72608 0,0.0144 -0.00859,0.026 -0.019082,0.026 -0.023053,0 -0.1668707,-0.0844 -0.4439394,-0.2604 -0.4919317,-0.31255 -1.4502445,-0.81008 -1.56034,-0.81008 -0.013864,0 -0.029345,-0.007 -0.034401,-0.0158 -0.00505,-0.009 -0.048284,-0.0257 -0.09606,-0.0378 -0.047778,-0.0121 -0.1129124,-0.0337 -0.1447449,-0.0479 -0.1061498,-0.0475 -0.3410114,-0.10343 -0.3761839,-0.0896 -0.050956,0.02 -0.060676,0.047 -0.071447,0.19825 -0.00958,0.1346 -0.011852,0.14059 -0.078136,0.2062 -0.075965,0.0752 -0.1338604,0.0876 -0.147663,0.0316 -0.01528,-0.062 -0.07741,-0.0369 -0.087247,0.0352 -0.00729,0.0535 -0.017236,0.064 -0.08404,0.0893 -0.1647749,0.0624 -0.2466885,0.0556 -0.2466885,-0.0205 0,-0.0212 -0.011743,-0.033 -0.033073,-0.033 -0.02133,0 -0.033073,0.0117 -0.033073,0.033 0,0.0559 -0.038289,0.0755 -0.10978,0.0564 -0.2298745,-0.0615 -0.2209492,-0.056 -0.2209492,-0.13418 0,-0.0496 -0.00619,-0.0604 -0.034621,-0.0604 -0.020714,0 -0.038095,0.0141 -0.04327,0.0351 -0.020164,0.0819 -0.1671267,10e-4 -0.2137456,-0.11707 -0.012407,-0.0316 -0.022556,-0.10134 -0.022556,-0.15517 0,-0.0805 -0.00719,-0.10552 -0.04059,-0.14096 -0.022324,-0.0237 -0.052711,-0.0431 -0.067524,-0.0431 -0.072661,0 -0.7062771,0.20444 -0.8452313,0.27272 -0.028659,0.0141 -0.058425,0.0259 -0.066146,0.0262 -0.00772,3.5e-4 -0.043803,0.0159 -0.080183,0.0345 -0.03638,0.0186 -0.075448,0.0342 -0.086817,0.0345 -0.011368,3.4e-4 -0.020671,0.008 -0.020671,0.0181 0,0.0101 -0.00794,0.0175 -0.017636,0.0175 -0.018064,0 -0.5462072,0.26394 -0.5611407,0.28043 -0.011358,0.0125 -0.066176,0.0447 -0.1869909,0.10959 -0.056318,0.0303 -0.2102974,0.12339 -0.3421757,0.20695 -0.3079155,0.1951 -0.4531166,0.28048 -0.4770124,0.28048 -0.010494,0 -0.019081,-0.0125 -0.019081,-0.0279 z m 3.4974606,-1.55632 c 0.0091,3.4e-4 0.029559,0.006 0.045475,0.0135 0.024337,0.0107 0.028938,0.003 0.028938,-0.0488 0,-0.0712 -0.061133,-0.29329 -0.08074,-0.29329 -0.019397,0 -0.1060807,0.31079 -0.092964,0.33332 0.00636,0.0109 0.026461,0.0139 0.046939,0.007 0.019698,-0.007 0.043257,-0.0119 0.052352,-0.0115 z m 2.369338,-0.17529 c 0.019357,-0.0219 0.029956,-0.0476 0.023553,-0.0571 -0.021075,-0.0313 -0.5160032,-0.2497 -0.5160032,-0.22772 0,0.003 0.035347,0.027 0.078548,0.0536 0.043201,0.0266 0.1412475,0.0984 0.2178796,0.15962 0.076632,0.0612 0.1441684,0.11127 0.1500798,0.11127 0.00591,0 0.026586,-0.0179 0.045943,-0.0398 z m -2.932504,-0.0948 c 0.1848262,-0.0878 0.2604483,-0.14442 0.296093,-0.22161 0.057954,-0.12549 0.00313,-0.21111 -0.1479985,-0.23114 -0.1631545,-0.0216 -0.2371176,-0.0635 -0.4884452,-0.27686 -0.092205,-0.0782 -0.1430479,-0.0638 -0.2015308,0.057 -0.043683,0.0902 -0.046007,0.10562 -0.035812,0.23691 0.017682,0.2277 0.064847,0.3837 0.1369341,0.45294 0.086121,0.0827 0.2434044,0.0766 0.4407594,-0.0172 z m 1.5634987,-0.002 c 0.07484,-0.0796 0.1089176,-0.19366 0.1249072,-0.41814 0.00987,-0.13865 0.00698,-0.17009 -0.022081,-0.2398 -0.032656,-0.0783 -0.075095,-0.11834 -0.1255717,-0.11834 -0.013774,0 -0.097979,0.0584 -0.1871223,0.12982 -0.18641,0.1493 -0.2412805,0.17709 -0.384574,0.19474 -0.1278072,0.0158 -0.166112,0.0504 -0.166112,0.15041 0,0.0392 0.00756,0.0863 0.016785,0.10463 0.02391,0.0475 0.1364047,0.12481 0.2839559,0.19534 0.1083085,0.0518 0.1471519,0.0612 0.2626358,0.0638 l 0.1355283,0.003 0.061649,-0.0655 z m 1.5819741,-0.18456 c 0.2509286,-0.35572 0.4681617,-0.89688 0.5439643,-1.3551 0.036764,-0.22225 0.049329,-0.67844 0.0254,-0.92217 -0.059466,-0.60566 -0.2397338,-1.07915 -0.6377376,-1.67509 -0.032231,-0.0483 -0.1312424,-0.1667 -0.2200249,-0.26323 -0.4470425,-0.48599 -1.04146,-0.82457 -1.6751503,-0.95414 -0.1687846,-0.0345 -0.4285888,-0.0666 -0.4285888,-0.0528 0,0.006 0.071516,0.19845 0.1561232,0.41908 0.020357,0.0531 0.056076,0.13996 0.079376,0.19304 0.0233,0.0531 0.1109004,0.26631 0.1946684,0.47382 0.083768,0.20752 0.1841502,0.45233 0.2230718,0.54402 0.038921,0.0917 0.098614,0.23384 0.1326489,0.31589 0.072015,0.17358 0.1190024,0.28199 0.2460868,0.56775 0.050878,0.1144 0.092504,0.21059 0.092504,0.21376 0,0.003 0.111621,0.24693 0.2480469,0.5417 0.1364257,0.29476 0.2480469,0.54041 0.2480469,0.5459 0,0.0131 0.6488028,1.39162 0.6792236,1.44325 0.012796,0.0217 0.027054,0.0392 0.031687,0.0389 0.00463,-3.5e-4 0.031928,-0.0339 0.060654,-0.0746 z m -5.0942637,-0.0522 c 0.00997,-0.0217 0.145393,-0.30785 0.3009482,-0.63602 0.2514656,-0.5305 0.5888884,-1.2471 0.7147626,-1.51798 0.046998,-0.10117 0.2512678,-0.55847 0.3949694,-0.88428 0.046356,-0.1051 0.084284,-0.20184 0.084284,-0.21497 0,-0.0439 0.049707,-0.0246 0.1534363,0.0598 0.1833139,0.14906 0.3281014,0.25016 0.4576991,0.31958 0.1367263,0.0732 0.1561762,0.0662 0.058591,-0.0214 -0.1392231,-0.12483 -0.5539715,-0.57128 -0.5539715,-0.59632 0,-0.0129 0.0268,-0.0904 0.059555,-0.17221 0.032755,-0.0817 0.1154453,-0.29472 0.1837556,-0.47328 0.068311,-0.17857 0.157616,-0.41153 0.198457,-0.5177 0.093866,-0.24401 0.1868396,-0.50576 0.1816181,-0.51129 -0.0022,-0.002 -0.1093738,0.0147 -0.2381619,0.0378 -1.5923632,0.28599 -2.7219241,1.80278 -2.6010509,3.49273 0.031589,0.44166 0.127561,0.82173 0.3020353,1.19615 0.088737,0.19043 0.2539998,0.47908 0.2741405,0.47883 0.00594,-7e-5 0.018965,-0.0178 0.028931,-0.0395 z"
       id="path3691"
       inkscape:connector-curvature="0" />
  </g>
</svg>
