/* XPM */
static char * close_active_xpm[] = {
"28 26 20 1",
" 	c None",
".	c #000000",
"+	c #010000",
"@	c #010101",
"#	c #020101",
"$	c #020000",
"%	c #010100",
"&	c #030202",
"*	c #040302",
"=	c #050302",
"-	c #030201",
";	c #040100",
">	c #050201",
",	c #070201",
"'	c #080201",
")	c #030000",
"!	c #040000",
"~	c #060100",
"{	c #070100",
"]	c #050100",
"............................",
"............................",
"............................",
"...................+++++....",
".............+.++@####$++...",
"...........++.%###&*==-$+...",
"...........+..%##;>,',>$+...",
".............++$)!~{{~!$+...",
"............++$$$$)]])$+....",
"..............+++++$$++.....",
"................+++++++.....",
"......................+.....",
"............................",
"+.....+++%+++...............",
"...+..++....................",
"............................",
"............................",
"............................",
"............................",
"............................",
"............................",
"............................",
"............................",
"............................",
"............................",
"............................"};
