/* XPM */
static char * maximize_prelight_xpm[] = {
"28 26 10 1",
" 	c None",
".	c #000000",
"+	c #010000",
"@	c #010100",
"#	c #020101",
"$	c #020100",
"%	c #020000",
"&	c #030101",
"*	c #030100",
"=	c #010101",
"............................",
"............................",
"............................",
"............................",
"..................++++......",
"..................+++++.....",
".........++.@.#$$@%%++++....",
"......+++++%$+&***+%%+......",
"......++++++$+#$$%++++......",
".......+++..+@+.+++.........",
"...........................+",
"..........................++",
"......................+++.++",
"............................",
"............................",
"............................",
"............................",
"............................",
"............................",
"=...........................",
"............................",
"............................",
"............................",
"............................",
"............................",
"............................"};
